<?xml version="1.0" standalone="no"?>
<!DOCTYPE svg PUBLIC "-//W3C//DTD SVG 20010904//EN"
 "http://www.w3.org/TR/2001/REC-SVG-20010904/DTD/svg10.dtd">
<svg version="1.0" xmlns="http://www.w3.org/2000/svg"
 width="824.000000pt" height="625.000000pt" viewBox="0 0 824.000000 625.000000"
 preserveAspectRatio="xMidYMid meet">
<metadata>
Created by potrace 1.16, written by Peter Selinger 2001-2019
</metadata>
<g transform="translate(0.000000,625.000000) scale(0.100000,-0.100000)"
fill="#000000" stroke="none">
<path d="M6040 5434 c-183 -62 -209 -78 -194 -121 14 -42 45 -40 206 15 80 27
164 53 187 57 28 5 47 15 58 31 14 22 14 26 -1 49 -25 38 -69 32 -256 -31z"/>
<path d="M6566 5361 c-24 -26 -14 -54 33 -96 45 -41 78 -102 117 -212 31 -90
55 -114 92 -94 42 22 39 41 -23 205 -26 69 -97 172 -138 201 -29 20 -60 19
-81 -4z"/>
<path d="M5333 5192 c-212 -74 -231 -87 -199 -137 9 -14 24 -25 34 -25 9 0
104 30 210 66 199 69 216 80 205 125 -4 13 -46 42 -56 38 -1 0 -88 -30 -194
-67z"/>
<path d="M3635 5094 c-139 -28 -247 -72 -460 -189 -38 -21 -77 -44 -85 -50 -8
-7 -35 -23 -60 -36 -25 -13 -47 -27 -50 -30 -3 -3 -21 -14 -40 -24 -19 -10
-67 -40 -107 -66 -40 -27 -77 -49 -83 -49 -5 0 -10 -4 -10 -8 0 -4 -15 -16
-32 -27 -29 -16 -114 -80 -128 -96 -3 -3 -26 -24 -52 -48 l-48 -43 -52 12
c-72 17 -147 56 -248 129 -129 93 -219 135 -301 139 -89 5 -154 -17 -217 -73
-121 -109 -155 -315 -79 -485 23 -53 90 -124 137 -145 47 -21 50 -44 5 -58
-109 -35 -185 -70 -190 -88 -8 -25 19 -69 43 -69 9 0 56 14 105 31 48 18 90
29 94 26 3 -4 -2 -33 -11 -65 -20 -73 -20 -124 0 -193 54 -182 246 -334 399
-313 28 3 76 20 108 37 101 53 146 123 218 333 48 143 71 189 116 242 l38 44
115 -12 c133 -13 280 -5 629 35 253 29 369 51 490 97 255 96 351 215 276 343
-45 77 -53 79 -412 71 -354 -9 -357 -8 -256 60 32 22 66 47 77 57 11 9 23 17
28 17 6 0 64 40 113 78 6 4 42 30 80 57 158 110 147 100 170 145 22 42 16 120
-12 158 -10 15 -39 37 -63 50 -52 26 -133 28 -245 6z m208 -100 c17 -5 23 -46
11 -77 -3 -9 -42 -39 -87 -69 -45 -29 -87 -57 -94 -63 -6 -5 -33 -25 -60 -43
-26 -18 -92 -64 -146 -103 -53 -38 -101 -69 -106 -69 -5 0 -14 -7 -21 -15 -6
-8 -79 -60 -161 -116 -82 -55 -149 -103 -149 -105 0 -3 15 -3 33 0 17 3 142 8
277 11 135 4 346 10 470 15 133 4 232 4 243 -2 17 -9 24 -63 9 -83 -12 -17
-115 -82 -157 -100 -145 -62 -258 -85 -585 -119 -375 -40 -563 -43 -678 -10
-20 6 -34 -4 -86 -59 -75 -77 -126 -173 -167 -308 -33 -111 -63 -184 -84 -205
-8 -8 -20 -23 -27 -32 -7 -10 -30 -28 -51 -40 -76 -44 -190 -19 -265 58 -99
101 -130 234 -76 326 22 37 55 65 183 150 86 57 170 115 186 129 l30 25 -251
-2 -252 -3 -38 31 c-22 16 -50 52 -64 80 -34 67 -36 215 -4 284 45 96 125 139
226 120 58 -11 81 -24 245 -133 139 -93 227 -132 324 -142 l54 -6 70 69 c74
72 153 135 245 194 120 76 157 98 168 98 5 0 12 4 14 9 3 8 115 74 183 109 17
9 32 19 35 23 10 14 203 109 221 109 10 0 19 4 19 9 0 5 17 12 38 16 20 4 42
10 47 14 11 9 109 29 165 34 35 4 79 0 113 -9z"/>
<path d="M1820 4430 c-25 -26 -28 -38 -27 -83 4 -85 58 -138 136 -131 64 6 99
28 106 68 11 57 -44 128 -123 159 -56 22 -59 22 -92 -13z"/>
<path d="M2680 4313 c-19 -8 -38 -31 -50 -61 -14 -32 14 -90 49 -103 31 -12
60 -6 94 21 21 17 25 27 23 61 -2 23 -11 49 -22 60 -21 20 -70 32 -94 22z"/>
<path d="M2077 3774 c-38 -25 -67 -74 -67 -114 0 -33 55 -106 91 -120 27 -11
36 -11 58 1 63 35 94 177 50 233 -27 34 -79 34 -132 0z"/>
<path d="M4691 4970 c-58 -21 -114 -41 -125 -43 -69 -17 -145 -51 -156 -72
-14 -27 -1 -60 29 -70 16 -5 290 81 389 122 40 17 48 65 14 91 -22 17 -33 15
-151 -28z"/>
<path d="M3896 4696 c-194 -68 -224 -87 -204 -131 6 -13 19 -26 30 -28 24 -7
384 117 410 140 34 30 11 84 -35 82 -12 0 -103 -29 -201 -63z"/>
<path d="M6882 4684 c-12 -8 -22 -24 -22 -35 0 -10 30 -104 66 -208 51 -145
71 -191 88 -199 27 -12 62 1 70 26 9 28 -119 392 -145 415 -26 21 -29 21 -57
1z"/>
<path d="M5887 4192 c-10 -10 -17 -24 -17 -30 0 -6 39 -100 86 -209 47 -109
87 -208 90 -220 6 -30 -15 -30 -69 1 -42 23 -92 50 -277 148 -273 145 -261
140 -284 125 -11 -8 -22 -24 -24 -36 -3 -21 132 -332 255 -589 31 -64 65 -91
89 -72 30 25 35 48 20 79 -8 15 -12 31 -9 35 4 3 1 6 -5 6 -7 0 -12 4 -12 9 0
9 -62 148 -136 308 -28 60 -30 73 -9 73 14 0 53 -18 65 -30 3 -3 66 -36 140
-74 74 -38 140 -73 147 -78 7 -5 63 -36 125 -68 121 -62 151 -65 163 -18 5 21
-104 293 -210 523 -13 28 -27 63 -30 78 -13 51 -68 72 -98 39z"/>
<path d="M7126 3967 c-14 -10 -17 -22 -14 -48 4 -28 84 -269 119 -360 20 -51
88 -58 103 -11 7 21 -119 389 -141 414 -19 21 -43 23 -67 5z"/>
<path d="M5060 3869 c-209 -42 -336 -219 -302 -420 24 -142 112 -271 218 -320
74 -35 186 -38 267 -8 34 12 76 32 93 43 51 34 111 111 133 171 52 138 1 334
-116 447 -72 70 -196 107 -293 87z m177 -130 c77 -48 125 -126 144 -233 13
-75 4 -120 -35 -191 -26 -48 -124 -103 -197 -112 -102 -12 -203 50 -255 155
-25 50 -28 69 -29 147 0 100 11 131 67 185 38 36 80 60 116 66 15 3 29 8 32
11 11 12 125 -8 157 -28z"/>
<path d="M1122 3731 c-94 -46 -195 -139 -226 -209 -18 -41 -18 -43 -1 -62 26
-28 61 -25 82 7 18 26 114 125 147 151 9 8 41 22 69 32 29 10 61 30 71 44 18
23 18 26 2 50 -23 35 -48 33 -144 -13z"/>
<path d="M4386 3604 c-38 -8 -117 -39 -175 -67 -98 -48 -106 -54 -108 -82 -3
-40 217 -635 240 -649 17 -11 17 -11 187 52 76 28 88 49 64 110 -10 26 -19 49
-20 52 0 3 -6 18 -12 33 -19 45 -15 55 36 88 116 78 152 212 90 336 -56 112
-164 157 -302 127z m150 -110 c45 -21 74 -78 74 -141 0 -73 -32 -111 -143
-168 -20 -11 -40 -28 -43 -37 -3 -10 8 -54 25 -98 17 -44 31 -83 31 -88 0 -11
-45 -32 -69 -32 -11 0 -22 12 -28 33 -6 17 -45 126 -88 240 -42 115 -74 215
-72 222 5 12 122 61 182 76 51 12 96 10 131 -7z"/>
<path d="M3946 3434 c-9 -8 -16 -22 -16 -31 0 -8 28 -90 61 -181 94 -254 104
-307 75 -376 -38 -92 -202 -154 -289 -110 -71 37 -89 70 -181 323 -65 178 -82
210 -117 211 -18 0 -49 -31 -49 -49 0 -23 132 -375 162 -432 62 -118 146 -174
258 -172 64 1 164 30 199 59 9 7 30 24 48 39 18 14 45 52 60 83 36 73 37 165
4 262 -50 144 -134 366 -144 378 -13 17 -52 15 -71 -4z"/>
<path d="M7380 3254 c-26 -16 -26 -18 -26 -143 1 -123 0 -128 -32 -190 -37
-73 -39 -91 -14 -114 65 -59 141 60 167 263 11 79 -29 201 -64 200 -3 0 -17
-8 -31 -16z"/>
<path d="M856 3138 c-8 -18 -11 -37 -6 -43 4 -5 34 -86 65 -180 32 -93 66
-178 75 -189 13 -13 26 -17 44 -12 51 13 50 32 -8 203 -30 87 -56 165 -58 173
-10 44 -36 75 -66 78 -28 3 -34 -1 -46 -30z"/>
<path d="M3008 3104 c-82 -32 -154 -98 -194 -181 -26 -52 -29 -68 -29 -158 0
-87 4 -109 29 -168 59 -140 191 -240 319 -241 254 -2 434 217 373 454 -36 141
-110 239 -219 290 -83 40 -180 41 -279 4z m249 -102 c95 -49 160 -183 151
-312 -10 -136 -114 -225 -263 -224 -105 0 -175 48 -225 150 -28 58 -39 185
-21 246 40 131 229 205 358 140z"/>
<path d="M2573 2940 c-74 -15 -128 -38 -190 -79 -138 -91 -201 -236 -170 -387
26 -123 80 -208 171 -267 117 -77 250 -76 412 4 112 55 145 108 89 145 -24 16
-27 15 -78 -20 -106 -73 -254 -98 -342 -57 -49 22 -100 78 -127 140 -30 67
-30 192 -1 246 49 93 154 156 285 172 53 7 64 12 78 35 14 26 13 29 -5 48 -25
24 -67 31 -122 20z"/>
<path d="M7015 2684 c-38 -14 -121 -43 -184 -64 -62 -22 -119 -45 -127 -51
-23 -19 -17 -66 10 -84 25 -17 42 -12 336 90 102 36 136 79 92 118 -25 22 -44
21 -127 -9z"/>
<path d="M1122 2453 c-25 -10 -32 -50 -18 -95 38 -118 119 -344 128 -355 16
-20 63 -15 83 7 21 24 22 20 -55 245 -68 198 -84 220 -138 198z"/>
<path d="M6335 2450 c-22 -10 -244 -89 -260 -93 -5 -2 -16 -6 -22 -10 -7 -5
-13 -6 -13 -2 0 3 -13 -1 -29 -10 -49 -25 -53 -82 -8 -102 18 -8 60 3 212 55
105 35 198 71 208 80 54 47 -17 113 -88 82z"/>
<path d="M5466 2146 c-212 -77 -227 -87 -202 -137 13 -27 48 -36 80 -21 12 6
91 34 176 62 85 29 165 58 178 66 33 21 30 69 -6 88 -26 13 -39 10 -226 -58z"/>
<path d="M4741 1895 c-101 -35 -188 -70 -192 -77 -16 -24 -9 -57 14 -73 22
-14 34 -11 183 40 247 86 243 84 250 110 9 35 -12 65 -44 64 -15 0 -110 -29
-211 -64z"/>
<path d="M1362 1720 c-12 -12 -22 -24 -22 -27 0 -13 120 -354 134 -382 9 -16
23 -31 32 -35 23 -9 64 20 64 44 0 10 -21 79 -46 152 -25 73 -52 155 -60 181
-16 50 -44 87 -67 87 -7 0 -23 -9 -35 -20z"/>
<path d="M4040 1653 c-186 -64 -220 -82 -220 -113 0 -21 31 -50 52 -50 28 0
372 121 391 137 18 17 22 50 9 69 -17 26 -56 19 -232 -43z"/>
<path d="M3325 1406 c-218 -75 -228 -81 -220 -121 11 -57 29 -57 177 -5 62 23
140 50 173 61 85 29 105 44 105 79 0 27 -23 51 -47 49 -4 0 -89 -28 -188 -63z"/>
<path d="M2620 1164 c-201 -70 -227 -82 -234 -107 -6 -26 8 -54 33 -62 11 -3
80 15 165 45 249 86 255 89 262 116 8 30 -19 64 -50 63 -12 0 -91 -25 -176
-55z"/>
<path d="M1686 1049 c-52 -41 -26 -77 94 -133 93 -42 197 -60 271 -46 76 14
99 50 58 91 -17 17 -28 19 -72 14 -29 -4 -81 -1 -116 5 -62 11 -173 59 -186
80 -9 15 -19 13 -49 -11z"/>
</g>
</svg>
