<?xml version="1.0" standalone="yes"?>
<svg width="980" height="972">
<path style="fill:#ffffff; stroke:none;" d="M0 0L0 972L980 972L980 0L0 0z"/>
<path style="fill:#4e4e4e; stroke:none;" d="M579 119L579 120L632 121C617.561 114.941 594.52 119 579 119z"/>
<path style="fill:#5f5f5f; stroke:none;" d="M567 120L567 121L575 121L567 120z"/>
<path style="fill:#bf4f3f; stroke:none;" d="M575 120L575 121L591 121L575 120z"/>
<path style="fill:#ff5d46; stroke:none;" d="M591 120.424C583.036 121.47 574.939 120.208 567.004 121.29C542.256 124.664 515.979 130.998 493 141.17C382.504 190.08 320.686 305.399 336.282 424C340.942 459.445 352.836 493.159 370.989 524C376.317 533.052 382.547 541.374 388.508 550C390.538 552.937 395.204 557.052 393.825 561C392.728 564.14 389.273 566.722 387 569C383.793 572.214 380.382 576.781 376 578.397C366.176 582.019 353.824 575.981 344 579.603C335.792 582.63 328.094 593.906 322 600C271.812 650.188 221.378 700.149 171.576 750.714C151.14 771.463 124.13 791.216 107.337 815C102.931 821.24 112.959 827.602 117.003 831.576C129.053 843.416 141.013 855.393 152.881 867.424C156.383 870.975 161.79 879.464 167 880.079C172.818 880.765 181.279 868.721 185 865L234 816C289.628 760.372 346.456 705.706 400.981 649C410.987 638.595 404.453 626.546 407.303 614.001C408.8 607.414 419.451 596.881 425.289 593.557C431.632 589.946 448.395 606.725 454.09 610.424C481.608 628.303 511.327 639.324 543 646.831C649.754 672.133 765.957 621.766 824.627 530.576C903.766 407.568 865.062 240.601 744 161.169C722.531 147.082 697.742 136.502 673 130.24C646.954 123.648 618.167 116.857 591 120.424z"/>
<path style="fill:#5d5d5d; stroke:none;" d="M562 121L562 122L566 122L562 121z"/>
<path style="fill:#ac4d40; stroke:none;" d="M627 121L627 122L634 122L627 121z"/>
<path style="fill:#595959; stroke:none;" d="M634 121L634 122L639 122L634 121z"/>
<path style="fill:#505050; stroke:none;" d="M556 122L556 123L561 123L556 122z"/>
<path style="fill:#8b4e45; stroke:none;" d="M634 122L634 123L649 124L634 122z"/>
<path style="fill:#605654; stroke:none;" d="M543 124L543 125L553 124L543 124z"/>
<path style="fill:#a74d41; stroke:none;" d="M553 123L553 124L561 124L553 123z"/>
<path style="fill:#626262; stroke:none;" d="M649 123L649 124L656 125L649 123z"/>
<path style="fill:#a14d41; stroke:none;" d="M539 126L539 127L546 126L539 126z"/>
<path style="fill:#854d45; stroke:none;" d="M657 125L657 126L661 127L661 126L657 125z"/>
<path style="fill:#515151; stroke:none;" d="M535 126L535 127L539 127L535 126z"/>
<path style="fill:#757575; stroke:none;" d="M661 126L661 127L665 127L661 126z"/>
<path style="fill:#a64d40; stroke:none;" d="M527 130L536 128C532.619 126.621 529.256 127.036 527 130z"/>
<path style="fill:#8b4d44; stroke:none;" d="M662 127L662 128L681 131L662 127z"/>
<path style="fill:#515151; stroke:none;" d="M525.667 129.333L526.333 129.667L525.667 129.333z"/>
<path style="fill:#804e47; stroke:none;" d="M519 130L519 131L525 131L519 130z"/>
<path style="fill:#5d5d5d; stroke:none;" d="M516 131L516 132L519 132L516 131z"/>
<path style="fill:#73514c; stroke:none;" d="M681 131C687.043 137.243 707.292 144.061 716 145L716 144L681 131z"/>
<path style="fill:#695350; stroke:none;" d="M495 139L495 140L516 133L495 139z"/>
<path style="fill:#626262; stroke:none;" d="M492 140L492 141L495 141L492 140z"/>
<path style="fill:#695350; stroke:none;" d="M483 144L483 145L492 142L483 144z"/>
<path style="fill:#7c4f49; stroke:none;" d="M470 151L470 152L483 145L470 151z"/>
<path style="fill:#695350; stroke:none;" d="M716 145L716 146L755 168C746.858 158.031 728.313 148.547 716 145z"/>
<path style="fill:#7c4f49; stroke:none;" d="M399 209L423 186.289L470 153C463.527 151.923 455.095 159.691 450 163.191C433.434 174.573 407.752 190.228 399 209z"/>
<path style="fill:#5c5c5c; stroke:none;" d="M755 168L772 182.296L799 207C792.341 193.26 769.237 173.398 755 168z"/>
<path style="fill:#a74d41; stroke:none;" d="M584 193L584 194L616 194L584 193z"/>
<path style="fill:#b24e40; stroke:none;" d="M577 194L577 195L584 195L577 194z"/>
<path style="fill:#666666; stroke:none;" d="M584 194L584 195L593 195L584 194z"/>
<path style="fill:#ffffff; stroke:none;" d="M593 194.424C577.551 196.454 562.041 197.46 547 201.782C494.491 216.871 449.229 254.111 426.309 304C375.031 415.612 442.724 558.677 569 575.282C586.187 577.542 602.707 579.047 620 576.718C716.95 563.657 787.814 487.314 791.961 389C795.689 300.606 728.969 220.468 645 200.102C628.909 196.199 609.575 192.247 593 194.424z"/>
<path style="fill:#4e4e4e; stroke:none;" d="M606 194L606 195L617 195L606 194z"/>
<path style="fill:#595959; stroke:none;" d="M561 197L561 198L583 196L561 197z"/>
<path style="fill:#505050; stroke:none;" d="M619 195L619 196L623 196L619 195z"/>
<path style="fill:#b94f3f; stroke:none;" d="M623 195L623 196L628 196L623 195z"/>
<path style="fill:#73514c; stroke:none;" d="M625 196L625 197L631 197L625 196z"/>
<path style="fill:#a14d41; stroke:none;" d="M554 199L554 200L561 198L554 199z"/>
<path style="fill:#565656; stroke:none;" d="M632 197L632 198L638 198L632 197z"/>
<path style="fill:#5a5a5a; stroke:none;" d="M639 198L639 199L642 199L639 198z"/>
<path style="fill:#636363; stroke:none;" d="M642 199L642 200L646 200L642 199z"/>
<path style="fill:#676767; stroke:none;" d="M470 244C497.131 229.944 520.922 202.515 554 201C546.985 198.084 537.61 203.375 531 205.842C514.41 212.032 499.226 220.008 485 230.626C479.701 234.581 473.352 238.151 470 244z"/>
<path style="fill:#7c4f49; stroke:none;" d="M646 200L646 201L652 201L646 200z"/>
<path style="fill:#774f4a; stroke:none;" d="M652 201L652 202L657 203L652 201z"/>
<path style="fill:#626262; stroke:none;" d="M657 203L657 204L660 204L657 203z"/>
<path style="fill:#a04d41; stroke:none;" d="M660 204L660 205L666 205L660 204z"/>
<path style="fill:#5a5a5a; stroke:none;" d="M664 205L664 206L674 209L664 205z"/>
<path style="fill:#676767; stroke:none;" d="M799 207C803.09 215.823 813.329 228.998 821 235C816.868 225.047 807.769 213.229 799 207z"/>
<path style="fill:#73514c; stroke:none;" d="M397 209C386.762 224.477 370.727 238.907 365 257L380.029 235L399 209L397 209z"/>
<path style="fill:#5c5756; stroke:none;" d="M674 209L674 210L678 211L678 210L674 209z"/>
<path style="fill:#636363; stroke:none;" d="M678 211L678 212L681 212L678 211z"/>
<path style="fill:#605654; stroke:none;" d="M681 212L681 213L685 214L685 213L681 212z"/>
<path style="fill:#686868; stroke:none;" d="M685 214L685 215L700 222L700 221L685 214z"/>
<path style="fill:#5d5857; stroke:none;" d="M700 222L700 223L706 226L700 222z"/>
<path style="fill:#636363; stroke:none;" d="M706 226L706 227L716 233L706 226z"/>
<path style="fill:#695350; stroke:none;" d="M716 233C723.638 242.957 735.34 250.479 743.826 260C759.586 277.68 772.651 299.454 780 322L781 322C778.483 296.747 755.206 268.535 738.286 251.17C731.761 244.473 724.742 236.696 716 233z"/>
<path style="fill:#5a5a5a; stroke:none;" d="M821 235L823 238L821 235z"/>
<path style="fill:#5e5e5e; stroke:none;" d="M823 238L827 246L828 246L823 238z"/>
<path style="fill:#615655; stroke:none;" d="M469 244C421.681 280.053 407 344.116 407 400L408 400C408 361.653 414.539 325.973 433.081 292C439.882 279.54 448.678 268.091 458.001 257.424C460.97 254.027 469.117 248.539 469 244z"/>
<path style="fill:#5a5a5a; stroke:none;" d="M828 246L830 249L828 246z"/>
<path style="fill:#605654; stroke:none;" d="M830 249L831 253L832 253L830 249z"/>
<path style="fill:#646464; stroke:none;" d="M832 253L837 264L838 264L832 253z"/>
<path style="fill:#695350; stroke:none;" d="M364 257L362 263L363 263L364 257z"/>
<path style="fill:#6e524e; stroke:none;" d="M361 263L355 277L356 277L361 263z"/>
<path style="fill:#616161; stroke:none;" d="M838 264L840 270L841 270L838 264z"/>
<path style="fill:#5f5f5f; stroke:none;" d="M841 270L841 273L842 273L841 270z"/>
<path style="fill:#626262; stroke:none;" d="M842 273L844 279L845 279L842 273z"/>
<path style="fill:#864e46; stroke:none;" d="M354 277L346 302L347 302C349.431 295.651 356.512 283.505 354 277z"/>
<path style="fill:#a74d41; stroke:none;" d="M845 279L845 284L846 284L845 279z"/>
<path style="fill:#636363; stroke:none;" d="M846 282L847 286L848 286L846 282z"/>
<path style="fill:#854d45; stroke:none;" d="M848 286L849 293L850 293L848 286z"/>
<path style="fill:#616161; stroke:none;" d="M850 292L852 301L853 301L850 292z"/>
<path style="fill:#676767; stroke:none;" d="M853 301L858 316L853 301z"/>
<path style="fill:#606060; stroke:none;" d="M345 302L344 307L345 307L345 302z"/>
<path style="fill:#5f5f5f; stroke:none;" d="M343 308L343 312L344 312L343 308z"/>
<path style="fill:#914d44; stroke:none;" d="M342 312L341 319L342 319L344 312L342 312z"/>
<path style="fill:#685350; stroke:none;" d="M858 316L859 326L860 326L858 316z"/>
<path style="fill:#605654; stroke:none;" d="M340 318L337 337L338 337L340 318z"/>
<path style="fill:#5a5a5a; stroke:none;" d="M781 322L781 326L782 326L781 322z"/>
<path style="fill:#804e47; stroke:none;" d="M782 326L785 340L786 340L782 326z"/>
<path style="fill:#535353; stroke:none;" d="M860 326L860 329L861 329L860 326z"/>
<path style="fill:#595959; stroke:none;" d="M861 330L861 333L862 333L861 330z"/>
<path style="fill:#695350; stroke:none;" d="M862 333L862 341L863 341L862 333z"/>
<path style="fill:#5d5d5d; stroke:none;" d="M336 338L336 344L337 344L336 338z"/>
<path style="fill:#5d5857; stroke:none;" d="M786 340L786 344L787 344L786 340z"/>
<path style="fill:#484848; stroke:none;" d="M863 341L863 346L864 346L863 341z"/>
<path style="fill:#c65040; stroke:none;" d="M336 344L335 354L336 354L336 344z"/>
<path style="fill:#6d514d; stroke:none;" d="M787 344L790 367L791 367L789 344L787 344z"/>
<path style="fill:#4b4b4b; stroke:none;" d="M335 346L335 350L336 350L335 346z"/>
<path style="fill:#b34e40; stroke:none;" d="M410 346L410 350L411 350L410 346z"/>
<path style="fill:#484848; stroke:none;" d="M864 347L864 352L865 352L864 347z"/>
<path style="fill:#904d43; stroke:none;" d="M334 351L333 401L334 401L334.039 369L334 351z"/>
<path style="fill:#b94f3f; stroke:none;" d="M864 352L864 359L865 359L864 352z"/>
<path style="fill:#626262; stroke:none;" d="M865 354L865 361L866 361L865 354z"/>
<path style="fill:#505050; stroke:none;" d="M866 364L866 407L867 407C867 394.781 870.711 375.225 866 364z"/>
<path style="fill:#666666; stroke:none;" d="M791 369L791 381L792 381L791 369z"/>
<path style="fill:#a64d40; stroke:none;" d="M792 373L792 396L793 396L792 373z"/>
<path style="fill:#545454; stroke:none;" d="M791 393L791 402L792 402L791 393z"/>
<path style="fill:#535353; stroke:none;" d="M408 400L408 407L409 407L408 400z"/>
<path style="fill:#5f5f5f; stroke:none;" d="M333 401L334 422L335 422L333 401z"/>
<path style="fill:#b24e40; stroke:none;" d="M791 402L791 408L792 408L791 402z"/>
<path style="fill:#5c5c5c; stroke:none;" d="M790 404L790 409L791 409L790 404z"/>
<path style="fill:#656565; stroke:none;" d="M409 408L409 415L410 415L409 408z"/>
<path style="fill:#655553; stroke:none;" d="M865 408L861 443L862 443C862.797 432.904 868.99 417.508 865 408z"/>
<path style="fill:#b94f40; stroke:none;" d="M790 409L790 414L791 414L790 409z"/>
<path style="fill:#656565; stroke:none;" d="M789 411L789 417L790 417L789 411z"/>
<path style="fill:#6e524e; stroke:none;" d="M410 415C410.007 424.909 412.102 435.861 416 445L417 445L410 415z"/>
<path style="fill:#b34e40; stroke:none;" d="M335 417L335 422L336 422L335 417z"/>
<path style="fill:#5a5a5a; stroke:none;" d="M788 418L787 428L788 428L788 418z"/>
<path style="fill:#73514c; stroke:none;" d="M335 422C335.942 443.945 344.303 464.12 350 485L351 485L341.478 452L335 422z"/>
<path style="fill:#5a5a5a; stroke:none;" d="M786 429L786 432L787 432L786 429z"/>
<path style="fill:#656565; stroke:none;" d="M785 432L784 441L785 441L785 432z"/>
<path style="fill:#595959; stroke:none;" d="M783.333 441.667L783.667 442.333L783.333 441.667z"/>
<path style="fill:#626262; stroke:none;" d="M782 443L782 446L783 446L782 443z"/>
<path style="fill:#585858; stroke:none;" d="M860 443L860 446L861 446L860 443z"/>
<path style="fill:#7b4e48; stroke:none;" d="M417 445L418 452L419 452L417 445z"/>
<path style="fill:#696969; stroke:none;" d="M781 446L781 450L782 450L781 446z"/>
<path style="fill:#5b5b5b; stroke:none;" d="M859 446C854.845 476.827 835.35 500.574 826 529L837.536 511L855.765 466L859 446z"/>
<path style="fill:#616161; stroke:none;" d="M780 450L779 455L780 455L780 450z"/>
<path style="fill:#6b6b6b; stroke:none;" d="M419 452L421 460L422 460L419 452z"/>
<path style="fill:#616161; stroke:none;" d="M778 455L778 458L779 458L778 455z"/>
<path style="fill:#595959; stroke:none;" d="M777 458L775 465L776 465L777 458z"/>
<path style="fill:#696969; stroke:none;" d="M422 460L425 468L426 468L422 460z"/>
<path style="fill:#636363; stroke:none;" d="M774 465L774 468L775 468L774 465z"/>
<path style="fill:#615655; stroke:none;" d="M426 468L427 472L428 472L426 468z"/>
<path style="fill:#695350; stroke:none;" d="M773 468L768 479C771.117 476.287 774.031 472.252 773 468z"/>
<path style="fill:#616161; stroke:none;" d="M428 472L431 480L432 480L428 472z"/>
<path style="fill:#595959; stroke:none;" d="M767 479L749 508C754.805 503.275 769.101 486.912 767 479z"/>
<path style="fill:#5d5857; stroke:none;" d="M432 480L435 485L432 480z"/>
<path style="fill:#626262; stroke:none;" d="M351 485L353 492L354 492L351 485z"/>
<path style="fill:#696969; stroke:none;" d="M435 485L442 496L435 485z"/>
<path style="fill:#72504c; stroke:none;" d="M354 492C356.905 508.298 369.941 526.725 379.427 540C382.829 544.761 391.901 553.096 392.408 559C392.94 565.185 378.912 575.452 374 578L374 579C380.339 578.022 395.135 566.177 394.538 559C394.003 552.567 385.003 544.103 381.289 539C371.084 524.98 365.543 504.249 354 492z"/>
<path style="fill:#636363; stroke:none;" d="M442 496L450 507L442 496z"/>
<path style="fill:#645452; stroke:none;" d="M450 507C453.71 515.637 462.383 522.533 469 528.985C491.029 550.466 526.753 571.448 558 574L558 573C527.47 566.702 498.765 551.585 475 531.561C466.116 524.076 459.229 513.913 450 507z"/>
<path style="fill:#864e46; stroke:none;" d="M714 542C727.595 534.179 741.056 520.84 750 508L731 525.911L714 542z"/>
<path style="fill:#717171; stroke:none;" d="M825 529L790 575C804.253 566.838 820.009 543.713 827 529L825 529z"/>
<path style="fill:#615655; stroke:none;" d="M699 550L699 551L714 541L699 550z"/>
<path style="fill:#72504c; stroke:none;" d="M688 556L688 557L699 551L688 556z"/>
<path style="fill:#5e5e5e; stroke:none;" d="M686.667 557.333L687.333 557.667L686.667 557.333z"/>
<path style="fill:#655553; stroke:none;" d="M680 560L680 561L686 559L680 560z"/>
<path style="fill:#5d5d5d; stroke:none;" d="M675 562L675 563L680 562L675 562z"/>
<path style="fill:#616161; stroke:none;" d="M670 564L670 565L675 564L670 564z"/>
<path style="fill:#5f5f5f; stroke:none;" d="M667 565L667 566L670 566L667 565z"/>
<path style="fill:#575757; stroke:none;" d="M663 567L663 568L667 567L663 567z"/>
<path style="fill:#8b4e45; stroke:none;" d="M653 570L653 571L663 569L653 570z"/>
<path style="fill:#ac4e40; stroke:none;" d="M640 575L653 572C649.029 570.45 642.716 571.638 640 575z"/>
<path style="fill:#676767; stroke:none;" d="M559 574L559 575L563 575L559 574z"/>
<path style="fill:#5f5f5f; stroke:none;" d="M636 574L636 575L640 575L636 574z"/>
<path style="fill:#a14d41; stroke:none;" d="M560 575L560 576L567 576L560 575z"/>
<path style="fill:#646464; stroke:none;" d="M567 575L567 576L586 578L567 575z"/>
<path style="fill:#5c5756; stroke:none;" d="M621 576L621 577L635 576L621 576z"/>
<path style="fill:#878787; stroke:none;" d="M788 575L787 579L788 579L790 575L788 575z"/>
<path style="fill:#4a4a4a; stroke:none;" d="M613 577L613 578L620 578L613 577z"/>
<path style="fill:#4b4b4b; stroke:none;" d="M343 578L343 579L374 579L343 578z"/>
<path style="fill:#8b4e45; stroke:none;" d="M582 578L582 579L596 579L582 578z"/>
<path style="fill:#494949; stroke:none;" d="M596 578L596 579L611 579L596 578z"/>
<path style="fill:#696969; stroke:none;" d="M777 587L787 578L777 587z"/>
<path style="fill:#7b4e48; stroke:none;" d="M105 817L146 777L225 698L303 620L343 579L321 599L279 641L158 762L122 798L105 817z"/>
<path style="fill:#646464; stroke:none;" d="M776 587L737 614.961L699 634L699 635C720.331 630.442 742.736 614.752 760 602C764.025 599.027 776.137 592.29 776 587z"/>
<path style="fill:#606060; stroke:none;" d="M414 605L427.171 594.422L448 607C437.859 593.781 422.791 587.005 414 605z"/>
<path style="fill:#868686; stroke:none;" d="M413 605L412 607L414 607L413 605z"/>
<path style="fill:#6d6d6d; stroke:none;" d="M410 607L407 614L408 614L412 607L410 607z"/>
<path style="fill:#676767; stroke:none;" d="M448 607L466 618L466 617L448 607z"/>
<path style="fill:#4d4d4d; stroke:none;" d="M407 614L407 637L408 637L407 614z"/>
<path style="fill:#5e5e5e; stroke:none;" d="M466 618L466 619L471 621L466 618z"/>
<path style="fill:#5c5756; stroke:none;" d="M471.667 621.333L472.333 621.667L471.667 621.333z"/>
<path style="fill:#666666; stroke:none;" d="M473 622L473 623L481 626L481 625L473 622z"/>
<path style="fill:#656565; stroke:none;" d="M481 626L481 627L485 628L485 627L481 626z"/>
<path style="fill:#5c5c5c; stroke:none;" d="M485.667 628.333L486.333 628.667L485.667 628.333z"/>
<path style="fill:#5a5a5a; stroke:none;" d="M487 629L487 630L491 631L491 630L487 629z"/>
<path style="fill:#656565; stroke:none;" d="M491 631L491 632L494 632L491 631z"/>
<path style="fill:#5d5d5d; stroke:none;" d="M494 632L494 633L498 634L498 633L494 632z"/>
<path style="fill:#656565; stroke:none;" d="M498 634L498 635L501 635L498 634M501 635L501 636L504 636L501 635z"/>
<path style="fill:#7b4e48; stroke:none;" d="M674 642L674 643L699 636C691.845 633.235 681.209 640.488 674 642z"/>
<path style="fill:#555555; stroke:none;" d="M504.667 636.333L505.333 636.667L504.667 636.333z"/>
<path style="fill:#727272; stroke:none;" d="M407 637C405.577 645.957 397.102 651.898 391 658L348 701L223 826L187 862C180.949 868.051 172.649 874.176 169 882C191.823 865.923 211.243 840.757 231 821L354 698L396 656C400.806 651.194 410.147 644.736 407 637z"/>
<path style="fill:#626262; stroke:none;" d="M506 637L506 638L509 638L506 637z"/>
<path style="fill:#9b4c41; stroke:none;" d="M509 638L509 639L518 640L509 638z"/>
<path style="fill:#5d5d5d; stroke:none;" d="M515 640L515 641L521 642L515 640z"/>
<path style="fill:#555555; stroke:none;" d="M521 642L521 643L526 643L521 642z"/>
<path style="fill:#515151; stroke:none;" d="M526.667 643.333L527.333 643.667L526.667 643.333z"/>
<path style="fill:#72504c; stroke:none;" d="M636 650L636 651L674 644C665.34 640.621 645.14 647.799 636 650z"/>
<path style="fill:#5f5f5f; stroke:none;" d="M528 644L528 645L536 646L528 644z"/>
<path style="fill:#bf4f3f; stroke:none;" d="M536 645L536 646L540 646L536 645z"/>
<path style="fill:#616161; stroke:none;" d="M537 646L537 647L541 647L537 646z"/>
<path style="fill:#904d43; stroke:none;" d="M542 647L542 648L551 649L542 647z"/>
<path style="fill:#6d6d6d; stroke:none;" d="M550 649L550 650L556 650L550 649z"/>
<path style="fill:#ac4e40; stroke:none;" d="M556 649L556 650L561 650L556 649z"/>
<path style="fill:#464646; stroke:none;" d="M559 650L559 651L563 651L559 650z"/>
<path style="fill:#a14d41; stroke:none;" d="M631 650L631 651L636 651L631 650z"/>
<path style="fill:#616161; stroke:none;" d="M564 651L564 652L571 652L564 651z"/>
<path style="fill:#bf5040; stroke:none;" d="M571 651L571 652L576 652L571 651z"/>
<path style="fill:#954c42; stroke:none;" d="M623 651L623 652L630 652L623 651z"/>
<path style="fill:#656565; stroke:none;" d="M630 651L630 652L635 652L630 651z"/>
<path style="fill:#914d44; stroke:none;" d="M572 652L572 653L617 653C605.299 648.09 584.742 652 572 652z"/>
<path style="fill:#5c5c5c; stroke:none;" d="M617 652L617 653L626 653L617 652z"/>
<path style="fill:#5d5857; stroke:none;" d="M104 816C104.588 823.801 112.275 828.982 117.6 834.119C129.214 845.32 140.544 856.931 151.881 868.424C156.9 873.512 161.574 880.854 169 882L169 881C160.619 877.091 153.926 867.712 147.4 861.199C133.213 847.042 114.791 832.894 104 816z"/>
</svg>
