<?xml version="1.0" standalone="no"?>
<!DOCTYPE svg PUBLIC "-//W3C//DTD SVG 20010904//EN"
 "http://www.w3.org/TR/2001/REC-SVG-20010904/DTD/svg10.dtd">
<svg version="1.0" xmlns="http://www.w3.org/2000/svg"
 width="283.000000pt" height="215.000000pt" viewBox="0 0 283.000000 215.000000"
 preserveAspectRatio="xMidYMid meet">
<metadata>
Created by potrace 1.16, written by Peter Selinger 2001-2019
</metadata>
<g transform="translate(0.000000,215.000000) scale(0.100000,-0.100000)"
fill="#000000" stroke="none">
<path d="M805 1986 c-184 -58 -303 -249 -276 -440 34 -239 265 -420 516 -403
119 7 233 55 219 92 -9 23 -32 25 -76 5 -208 -91 -465 3 -564 207 -26 51 -29
69 -29 153 0 84 3 101 28 147 40 77 81 118 149 153 125 62 260 31 342 -78 42
-56 59 -63 76 -33 8 15 3 29 -23 68 -74 111 -235 169 -362 129z"/>
<path d="M899 1561 l-29 -29 0 -130 0 -130 30 -11 30 -10 0 124 c0 104 3 126
17 141 16 16 39 16 282 10 145 -4 272 -11 280 -16 9 -5 174 -168 368 -362
l352 -353 -281 -284 -280 -284 -364 364 -363 363 -3 75 -3 75 -32 7 -33 6 0
-79 c0 -44 5 -89 11 -101 15 -30 771 -787 786 -787 16 0 643 627 643 643 0 19
-752 768 -787 783 -25 11 -95 14 -313 14 l-282 0 -29 -29z"/>
<path d="M1187 1375 c-56 -19 -107 -74 -107 -116 0 -19 51 -1 87 32 19 16 45
29 59 29 62 0 113 -58 99 -113 -11 -41 -47 -67 -108 -77 -31 -5 -64 -13 -74
-18 -30 -17 41 -45 102 -40 95 8 152 75 143 168 -10 104 -106 168 -201 135z"/>
<path d="M1578 1006 c-16 -22 -14 -30 42 -211 32 -103 61 -189 63 -191 2 -2
13 6 24 19 l21 22 -44 140 c-25 77 -52 164 -60 193 -8 28 -18 52 -22 52 -4 0
-15 -11 -24 -24z"/>
<path d="M1751 984 c-19 -15 -40 -43 -48 -62 -13 -30 -12 -37 5 -70 38 -74
122 -103 176 -61 66 52 67 115 2 178 -47 46 -93 51 -135 15z"/>
<path d="M1389 821 c-46 -46 -50 -80 -15 -132 31 -46 84 -74 121 -65 45 11 95
68 95 108 0 63 -65 128 -129 128 -26 0 -42 -9 -72 -39z"/>
</g>
</svg>
