<?xml version="1.0" standalone="no"?>
<!DOCTYPE svg PUBLIC "-//W3C//DTD SVG 20010904//EN"
 "http://www.w3.org/TR/2001/REC-SVG-20010904/DTD/svg10.dtd">
<svg version="1.0" xmlns="http://www.w3.org/2000/svg"
 width="434.000000pt" height="329.000000pt" viewBox="0 0 434.000000 329.000000"
 preserveAspectRatio="xMidYMid meet">
<metadata>
Created by potrace 1.16, written by Peter Selinger 2001-2019
</metadata>
<g transform="translate(0.000000,329.000000) scale(0.100000,-0.100000)"
fill="#000000" stroke="none">
<path d="M2077 2765 c-58 -22 -110 -68 -142 -127 -24 -44 -29 -65 -29 -123 -1
-92 25 -139 143 -270 50 -55 90 -105 91 -111 0 -7 -29 -14 -71 -17 -125 -11
-169 -47 -208 -175 -11 -37 -34 -88 -51 -114 -35 -53 -115 -118 -181 -147 -98
-44 -468 -142 -574 -153 -21 -2 -34 -11 -43 -31 -17 -35 -64 -56 -134 -59 -62
-3 -75 12 -23 27 20 6 36 15 35 20 -1 15 -50 10 -132 -14 -273 -80 -487 -209
-599 -359 -87 -119 -113 -229 -64 -277 31 -32 65 -32 133 0 69 32 96 31 157
-5 28 -16 64 -30 81 -30 37 0 80 40 70 66 -6 16 -10 15 -32 -9 -14 -15 -33
-27 -44 -27 -27 0 -44 34 -30 60 11 20 21 20 1740 20 1719 0 1729 0 1740 -20
14 -26 -3 -60 -30 -60 -11 0 -30 12 -44 27 -22 24 -26 25 -32 9 -10 -26 33
-66 70 -66 17 0 54 14 81 30 61 36 88 37 157 5 68 -32 102 -32 133 0 69 68
-18 264 -174 393 -113 95 -294 186 -456 232 -70 20 -155 34 -155 25 0 -1 16
-10 36 -20 58 -27 29 -39 -58 -25 -73 13 -108 31 -108 57 0 18 -29 29 -130 48
-180 34 -427 104 -505 143 -56 27 -134 94 -165 140 -17 26 -40 77 -51 114 -39
128 -83 164 -208 175 -68 6 -71 7 -71 32 0 19 -27 55 -95 131 -110 121 -135
165 -135 237 0 154 168 249 302 170 55 -32 87 -80 96 -143 8 -55 33 -78 58
-53 36 36 -19 180 -89 233 -70 54 -179 70 -260 41z m256 -1089 c57 -16 152
-60 256 -118 112 -64 382 -150 541 -173 25 -3 68 -10 95 -15 28 -5 91 -17 140
-26 137 -24 233 -50 326 -88 164 -66 313 -168 307 -210 l-3 -21 -1825 0 -1825
0 -3 21 c-2 15 10 33 40 58 119 103 353 202 553 235 398 66 475 83 645 143 88
31 195 82 262 124 134 85 329 112 491 70z"/>
</g>
</svg>
