<?xml version="1.0" standalone="yes"?>
<svg width="980" height="972">
<path style="fill:#ffffff; stroke:none;" d="M0 0L0 972L980 972L980 0L0 0z"/>
<path style="fill:#ff5d50; stroke:none;" d="M15.044 98.5725C7.85373 100.769 9 110.102 9 116L9 167L9 386L9 670L9 743C9 750.626 6.24562 765.182 11.0895 771.581C14.9285 776.652 24.4825 775 30 775C46.8066 775 63.6239 774.627 80.4244 774.861C133.586 775.601 186.821 775 240 775L288 775C294.925 775 304.238 776.613 310.829 774.312C319.724 771.207 319 762.732 319 755L319 702L319 471L319 198L319 129C319 120.808 321.507 108.04 315.95 101.239C311.88 96.2584 302.703 98 297 98L244 98L86 98L38 98C30.9342 98 21.8447 96.4951 15.044 98.5725M338.174 98.7029C331.066 101.411 332 109.857 332 116L332 164L332 370L332 661L332 739C332 747.64 329.05 763.096 333.573 770.725C336.985 776.481 346.409 775 352 775L404 775L567 775L613 775C619.992 775 629.114 776.469 635.675 773.576C643.084 770.309 642 761.627 642 755L642 704L642 486L642 207L642 132C642 123.87 644.727 109.587 640.312 102.468C636.551 96.4054 628.077 98 622 98L570 98L408 98L360 98C353.486 98 344.324 96.36 338.174 98.7029M659.044 98.5725C651.603 100.841 652 109.814 652 116L652 167L652 385L652 664L652 739C652 746.801 649.159 761.603 653.314 768.384C657.947 775.947 666.331 775 674 775L724 775C773.538 775 823.527 772.958 873 774.745C891.636 775.419 910.349 775 929 775C937.225 775 948.146 776.836 955.995 774.056C963.406 771.431 962 762.32 962 756L962 702L962 472L962 200L962 129C962 121.383 964.572 107.782 959.911 101.279C956.243 96.1616 946.445 98 941 98L889 98L730 98L682 98C674.932 98 665.848 96.4978 659.044 98.5725z"/>
<path style="fill:#ff9990; stroke:none;" d="M334.667 100.333L335.333 100.667L334.667 100.333z"/>
<path style="fill:#feb5ac; stroke:none;" d="M639.667 101.333L640.333 101.667L639.667 101.333z"/>
<path style="fill:#f99289; stroke:none;" d="M146 521L146 745L147 745L147 520C123.661 520.064 100.438 521 77 521C69.5228 521 56.7551 523.612 51.8519 516.521C44.9891 506.595 60.3532 485.358 64.6551 476.004C74.1165 455.43 82.9005 434.535 92.5108 413.985C99.2247 399.629 108.307 384.996 109.83 369C110.718 359.676 113.085 340.644 106.525 333.214C100.588 326.488 93.9675 331.843 87.2855 329.103C79.4315 325.881 68.2329 305.964 66.3395 297.834C65.0802 292.427 70.4214 287.875 73.321 284C79.2475 276.08 90.9792 265.205 94 256L128 262C124.911 258.465 115.633 259.409 111 258.845C105.921 258.227 99.2546 253.857 94.3248 255.517C89.9095 257.003 87.7643 261.912 85.1798 265.338C78.7196 273.901 67.2608 283.366 64.7207 294.089C62.7713 302.318 77.6696 327.098 85.1698 330.258C91.6149 332.973 97.7895 327.984 103.79 333.394C111.618 340.453 109.218 354.493 108.985 364C108.647 377.826 101.956 387.891 96.6443 400.17C85.8257 425.18 75.0546 450.584 63.0201 475.004C58.0025 485.185 42.5633 507.389 50.848 518.291C55.6906 524.663 68.928 522 76 522C99.4366 522 122.673 522.002 146 521M210 257C221.617 255.284 231.025 277.093 237.371 284.996C240.014 288.287 243.931 292.467 243.632 297.004C242.986 306.785 232.424 313.49 231 323C237.316 315.442 248.035 301.627 244.146 291.17C242.276 286.142 237.567 282.134 234.326 278C230.639 273.298 217.994 247.899 210 257z"/>
<path style="fill:#e1d8d9; stroke:none;" d="M415 268L432 256C424.577 252.978 418.002 262.214 415 268z"/>
<path style="fill:#e4c1bd; stroke:none;" d="M541 255L541 256L547 256L541 255z"/>
<path style="fill:#e3d8d6; stroke:none;" d="M745 255L738 266L746 256L754 258C755.607 253.736 747.667 255 745 255z"/>
<path style="fill:#dfd7d4; stroke:none;" d="M856 257L856 258L862 259C867.091 251.336 881.228 273.981 886 277C882.722 270.478 873.584 256.756 865.845 255.296C862.582 254.681 859.214 256.591 856 257z"/>
<path style="fill:#ffffff; stroke:none;" d="M94 256C88.7567 265.664 79.3496 275.2 72.5502 284C69.6517 287.751 64.7411 292.576 65.8588 297.834C67.6018 306.034 78.7538 325.643 86.4213 329.137C93.6465 332.43 98.5724 325.479 105.751 333.21C112.835 340.84 110.757 358.27 109.83 368C108.3 384.068 99.1815 398.548 92.5108 412.996C82.8614 433.896 74.3197 455.381 64.1806 476.004C59.652 485.215 44.9296 506.534 51.3056 516.521C55.8735 523.676 68.7218 521 76 521C99.7788 521 123.323 520.196 147 520L147 744L164 744L163 520C186.297 520.481 209.63 521 233 521C239.894 521 253.683 523.093 258.562 517.137C262.195 512.701 260.762 507.418 258.515 502.715C253.477 492.173 248.667 481.736 243.914 471.089C226.132 431.249 196.966 388.925 200.054 344C200.494 337.596 204.908 328.935 212.04 328.148C216.34 327.674 220.857 330.064 224.96 327.975C232.087 324.347 242.622 305.828 243.725 298C245.12 288.093 229.212 272.298 223.311 265C221.111 262.279 219.237 258.283 215.816 256.909C211.948 255.355 208.612 258.2 204.961 259.037C197.164 260.825 187.997 261.61 180 261.961C168.902 262.447 157.116 265.172 146.039 263.871C133.532 262.403 120.567 261.507 108.001 259.572C103.086 258.815 98.9745 256.271 94 256M403 283C401.905 287.257 397.803 290.875 397.383 295.17C396.57 303.477 406.417 313.004 409.866 320.015C411.359 323.051 411.964 326.884 415.144 328.682C420.227 331.556 429.289 329 435 329C436.248 332.786 439.599 334.887 440.525 339.015C445.68 362.004 438.162 383.195 432.272 405C430.488 411.605 428.705 427.51 423 431C422.123 451.43 413.147 471.639 407.325 491C401.021 511.963 395.894 533.783 390.561 554.985C387.96 565.324 375.611 588.327 384.225 597.427C389.115 602.594 402.455 600 409 600L479 600L479 696L478 745L495 745L495 600L564 600C570.754 600 584.053 602.54 589.246 597.347C596.966 589.628 586.252 567.232 583.861 558C577.149 532.079 569.096 506.404 562.546 480.285C559.808 469.37 554.039 458.312 554 447L552 448C551.227 410.568 519.458 373.264 534.6 335.018C538.837 324.316 550.336 332.829 557.481 329.142C560.821 327.419 561.624 323.508 563.17 320.424C566.929 312.929 575.34 306.653 576.566 298.039C577.304 292.859 572.978 289.229 570.139 285.561C564.893 278.782 559.935 271.64 554.62 264.701C552.272 261.637 549.911 257.179 545.819 256.283C530.452 252.917 510.035 271.077 500.206 280.884C496.626 284.456 491.709 294.462 486.019 294.168C481.098 293.914 476.131 282.832 473.049 279.376C465.253 270.634 441.301 252.522 428.271 256.532C416.397 260.187 413.407 277.411 403 283M746 256C741.027 265.541 732.57 274.112 725.945 282.611C722.645 286.845 717.83 291.108 718.317 297C719.278 308.622 732.129 317.197 734 329L753.946 330.602L762 336C764.651 397.742 741.985 457.967 735.129 519C733.097 537.087 728.914 554.919 726.3 573C725.269 580.132 725.37 592.262 721 598L716.114 630.089L712 649C715.18 666.93 704.24 687.8 703.676 706C703.477 712.414 698.708 720.1 704.688 725.272C709.156 729.136 720.436 727 726 727L779 727C783.535 727 793.822 725.094 797.258 728.603C800.609 732.027 799 740.596 799 745L816 745L817 727L889 727C894.73 727 908.957 729.651 912.196 723.772C915.726 717.364 912.298 708.633 910.884 702C908.157 689.207 905.109 675.14 905 662L903 663C903 636.492 894.211 610.044 890.111 584C882.598 536.267 874.253 488.514 866.444 441C863.762 424.679 861.522 407.051 857.694 391C854.377 377.085 850.872 363.579 852.194 349.028C852.747 342.949 854.992 331.92 862 330.25C866.682 329.134 875.616 332.274 879.5 329.278C881.591 327.664 881.872 323.443 883.389 321.222C887.499 315.202 896.561 304.401 896.972 297C897.236 292.254 893.464 289.273 891.111 285.611C885.592 277.023 879.11 268.928 872.306 261.222C869.862 258.456 863.314 252.867 862 259C848.039 255.163 829.157 272.541 820.115 281.529C817.115 284.51 811.685 295.671 807.042 295.079C801.922 294.427 795.424 281.508 791.63 277.89C779.289 266.117 763.536 256.06 746 256z"/>
<path style="fill:#ed998f; stroke:none;" d="M433 257L433 258L438 258L433 257z"/>
<path style="fill:#ee9692; stroke:none;" d="M536 257L536 258L540 258L536 257z"/>
<path style="fill:#e17f76; stroke:none;" d="M755 257L755 258L763 258L755 257z"/>
<path style="fill:#f8a9a2; stroke:none;" d="M184 260L184 261L209 259L184 260z"/>
<path style="fill:#deddd9; stroke:none;" d="M550 258L554 263L550 258z"/>
<path style="fill:#ddd7d9; stroke:none;" d="M851 259L845 264L851 259z"/>
<path style="fill:#ff756a; stroke:none;" d="M128 261L128 262L161 263L128 261z"/>
<path style="fill:#fe8276; stroke:none;" d="M163 262L163 263L185 262L163 262z"/>
<path style="fill:#f0c1b9; stroke:none;" d="M161.667 262.333L162.333 262.667L161.667 262.333z"/>
<path style="fill:#fed5d1; stroke:none;" d="M142 263L142 264L161 264L142 263z"/>
<path style="fill:#e3d9da; stroke:none;" d="M514 268L514 269L524 264L514 268z"/>
<path style="fill:#e3dddd; stroke:none;" d="M554 263L557 269L558 269L554 263z"/>
<path style="fill:#e9a09a; stroke:none;" d="M770 263L770 264L773 264L770 263z"/>
<path style="fill:#eda098; stroke:none;" d="M841 263L841 264L845 264L841 263z"/>
<path style="fill:#ccadab; stroke:none;" d="M737 265L736 268L737 265z"/>
<path style="fill:#d6c8c7; stroke:none;" d="M838 265L832 269L832 270L840 265L838 265z"/>
<path style="fill:#d08f8b; stroke:none;" d="M458.667 267.333L459.333 267.667L458.667 267.333z"/>
<path style="fill:#e1dad4; stroke:none;" d="M414 268L404 283C408.003 280.565 415.637 272.904 414 268z"/>
<path style="fill:#d6caca; stroke:none;" d="M736 268C725.232 281.889 713.375 289.657 721 308L722 308C721.065 302.005 716.731 297.096 720.05 291.089C723.333 285.149 737.318 274.548 736 268z"/>
<path style="fill:#e6aba5; stroke:none;" d="M779 268L779 269L784 271L779 268z"/>
<path style="fill:#f29a96; stroke:none;" d="M462.667 270.333L463.333 270.667L462.667 270.333z"/>
<path style="fill:#e6e0e2; stroke:none;" d="M504 275L504 276L512 270L504 275z"/>
<path style="fill:#f29b92; stroke:none;" d="M559.667 270.333L560.333 270.667L559.667 270.333z"/>
<path style="fill:#ee978e; stroke:none;" d="M829 270L829 271L832 271L829 270z"/>
<path style="fill:#e3cecb; stroke:none;" d="M462 271L469 276L469 275L462 271z"/>
<path style="fill:#e1d6d4; stroke:none;" d="M559 271L564 277L559 271z"/>
<path style="fill:#e1d8d9; stroke:none;" d="M785 271L789 277L790 277L785 271z"/>
<path style="fill:#e2d7d5; stroke:none;" d="M829 271L813.455 287.001L807.1 293.373L794 278L793 278C794.234 282.416 803.606 297.038 808.897 295.338C813.031 294.01 816.463 286.36 819.336 283.185C822.442 279.752 829.752 276.146 829 271z"/>
<path style="fill:#eea7a1; stroke:none;" d="M469.667 276.333L470.333 276.667L469.667 276.333z"/>
<path style="fill:#e1d7d5; stroke:none;" d="M503 276L498 282C500.84 280.759 503.776 279.409 503 276z"/>
<path style="fill:#cfc3c3; stroke:none;" d="M791.667 277.333L792.333 277.667L791.667 277.333z"/>
<path style="fill:#e2d6d6; stroke:none;" d="M886 277L896.552 296L887 317L888 317C897.064 302.392 902.259 289.33 886 277z"/>
<path style="fill:#e6a5a1; stroke:none;" d="M100 280L104 280L100 280z"/>
<path style="fill:#f8958f; stroke:none;" d="M206 279L206 280L210 279L206 279z"/>
<path style="fill:#dcc4c0; stroke:none;" d="M861.667 278.333L862.333 278.667L861.667 278.333z"/>
<path style="fill:#ff5d50; stroke:none;" d="M75 498L234 498C233.303 485.113 222.458 470.533 217.145 458.83C201.29 423.909 177.911 386.6 181.093 347C182.214 333.059 186.993 319.544 198.808 311.242C208.524 304.415 219.828 308.982 223 295L210 279C181.718 284.329 155.743 284.904 127 284.014C119.326 283.776 103.56 276.302 97.4684 282.244C95.5077 284.156 94.3036 286.638 92.8418 288.911C80.2363 308.507 107.758 305.093 117.999 316.44C127.154 326.583 128.979 340.771 129 354C129.036 376.463 121.501 393.141 112.605 413.17C100.114 441.292 86.2179 469.346 75 498z"/>
<path style="fill:#eeada7; stroke:none;" d="M210 279L213 283L210 279z"/>
<path style="fill:#ff5d50; stroke:none;" d="M418 296C421.778 310.723 437.917 305.974 447.714 316.104C462.077 330.958 460 350.867 460 370L514 370C514 351.663 511.055 331.38 525.025 317.04C532.763 309.098 550.176 309.708 553.832 299.999C556.046 294.12 546.159 280.082 540 279.657C531.203 279.052 518.077 289.994 512.09 295.439C501.097 305.439 501.789 317.552 496.171 329.714C494.519 333.29 490.399 337.968 486.05 337.596C475.962 336.731 475.452 320.273 472.755 313.089C468.226 301.025 457.509 290.589 446.17 284.934C442.722 283.215 435.124 278.213 431.321 280.122C425.53 283.03 422.78 291.749 418 296M722 706L810 706C810.47 649.259 821.621 592.754 823.015 536C823.337 522.871 824.093 507.78 826.964 495C827.955 490.588 830.81 484.905 836.015 484.711C841.321 484.514 845.553 490.434 846.811 495C850.337 507.802 850.502 521.561 854.294 534.286C859.311 551.122 859.288 569.688 863.22 586.83C872.131 625.679 879.994 666.418 885 706L894 706C888.613 691.942 887.714 673.925 885.576 659.001C881.534 630.783 876.402 602.125 870.961 574.089C862.453 530.256 855.927 485.979 847.961 442C843.657 418.24 837.459 394.037 835.17 370C833.524 352.724 832.883 331.939 844.59 318.015C848.743 313.075 853.63 309.393 860 307.847C863.196 307.072 867.721 307.819 870.505 305.976C874.182 303.541 876.377 297.927 874.332 293.999C872.282 290.063 866.311 281.01 861.841 279.792C858.543 278.893 853.019 282.423 850 283.671C834.296 290.16 824.467 304.61 819.001 320C817.065 325.449 815.043 339.533 806.171 337.427C797.223 335.305 796.496 320.884 793.885 314C789.244 301.764 779.602 291.294 767.961 285.374C763.3 283.004 756.036 277.955 751.003 281.408C745.155 285.421 737.063 294.813 741.178 301.981C745.579 309.645 757.993 307.15 765.08 312.915C782.318 326.938 782.164 351.519 779.714 372C776.037 402.75 768.936 433.711 763.039 464.09C753.003 515.797 745.39 568.003 736.911 619.961C734.041 637.541 731.29 655.419 727.755 672.911C725.597 683.595 722.037 695.084 722 706z"/>
<path style="fill:#faa199; stroke:none;" d="M104 280L104 281L111 281L104 280z"/>
<path style="fill:#d38f8e; stroke:none;" d="M864.333 280.667L864.667 281.333L864.333 280.667z"/>
<path style="fill:#e7ddde; stroke:none;" d="M111 281L111 282L135 284L111 281z"/>
<path style="fill:#ecc3c1; stroke:none;" d="M190 281L190 282L199 282L190 281z"/>
<path style="fill:#ed948e; stroke:none;" d="M437 281L437 282L443 283L437 281z"/>
<path style="fill:#e4dcd9; stroke:none;" d="M474 281L479 288L480 288L474 281z"/>
<path style="fill:#f08f86; stroke:none;" d="M532 283L536 282L532 283z"/>
<path style="fill:#e5dcdf; stroke:none;" d="M568 281L573 290L574 290L568 281z"/>
<path style="fill:#e88e86; stroke:none;" d="M758 281L758 282L762 282L758 281z"/>
<path style="fill:#e9877e; stroke:none;" d="M850 282L850 283L857 282L850 282z"/>
<path style="fill:#e7dedf; stroke:none;" d="M177 282L177 283L190 283L177 282z"/>
<path style="fill:#dddfdc; stroke:none;" d="M497 282L489 294C492.313 291.446 498.02 286.506 497 282z"/>
<path style="fill:#dcb5b0; stroke:none;" d="M762.667 282.333L763.333 282.667L762.667 282.333z"/>
<path style="fill:#ed887e; stroke:none;" d="M119 283L119 284L132 284L119 283z"/>
<path style="fill:#ee877e; stroke:none;" d="M176 284L176 285L190 284L176 284z"/>
<path style="fill:#eaada8; stroke:none;" d="M132 284L132 285L176 285C164.537 280.19 144.48 284 132 284z"/>
<path style="fill:#e5b8b3; stroke:none;" d="M213.667 284.333L214.333 284.667L213.667 284.333z"/>
<path style="fill:#dedadb; stroke:none;" d="M402 284L397 293C400.112 291.017 402.808 287.788 402 284z"/>
<path style="fill:#e8aba6; stroke:none;" d="M444.667 284.333L445.333 284.667L444.667 284.333z"/>
<path style="fill:#e3a39a; stroke:none;" d="M765.667 284.333L766.333 284.667L765.667 284.333z"/>
<path style="fill:#e5a69f; stroke:none;" d="M847.667 284.333L848.333 284.667L847.667 284.333z"/>
<path style="fill:#e3b7b4; stroke:none;" d="M215.333 285.667L215.667 286.333L215.333 285.667z"/>
<path style="fill:#f2ada8; stroke:none;" d="M216.333 287.667L216.667 288.333L216.333 287.667z"/>
<path style="fill:#e28f87; stroke:none;" d="M520 289L523 287L520 289z"/>
<path style="fill:#f2948a; stroke:none;" d="M92 288L91 292L92 292L92 288z"/>
<path style="fill:#d5b6b1; stroke:none;" d="M772.667 288.333L773.333 288.667L772.667 288.333z"/>
<path style="fill:#e6ddde; stroke:none;" d="M481 289L485 295L481 289z"/>
<path style="fill:#ffc2bd; stroke:none;" d="M517.667 290.333L518.333 290.667L517.667 290.333z"/>
<path style="fill:#e1d9d7; stroke:none;" d="M575 290L575 294L576 294L575 290z"/>
<path style="fill:#f3aaa4; stroke:none;" d="M220 292L222 295L220 292z"/>
<path style="fill:#cf908b; stroke:none;" d="M396.333 292.667L396.667 293.333L396.333 292.667z"/>
<path style="fill:#e0867d; stroke:none;" d="M420 293L419 296L420 293z"/>
<path style="fill:#d37c75; stroke:none;" d="M488 293L485 294L485 295L488 293z"/>
<path style="fill:#ce938d; stroke:none;" d="M576 293L577 299L578 299L576 293z"/>
<path style="fill:#e4dad8; stroke:none;" d="M396 294L402 310L403 310L396 294z"/>
<path style="fill:#f69992; stroke:none;" d="M87 295L87 299L88 299L87 295z"/>
<path style="fill:#e3b1a8; stroke:none;" d="M222 298L220 304L221 304L222 298z"/>
<path style="fill:#e4c1bf; stroke:none;" d="M88 299L89 303L90 303L88 299z"/>
<path style="fill:#d9827b; stroke:none;" d="M828 301L827 304L828 301z"/>
<path style="fill:#d7b1ae; stroke:none;" d="M551.333 303.667L551.667 304.333L551.333 303.667z"/>
<path style="fill:#eaa9a3; stroke:none;" d="M218 304L205 307L205 308C208.012 307.99 219.689 308.48 218 304z"/>
<path style="fill:#eca7a0; stroke:none;" d="M91 305L105 308L105 307L91 305z"/>
<path style="fill:#cfabad; stroke:none;" d="M469 306L470 310L471 310L469 306z"/>
<path style="fill:#d7a9a9; stroke:none;" d="M541.667 307.333L542.333 307.667L541.667 307.333z"/>
<path style="fill:#d1bcb9; stroke:none;" d="M823 307L823 310L824 310L823 307z"/>
<path style="fill:#eeb4b2; stroke:none;" d="M105 308L105 309L108 309L105 308z"/>
<path style="fill:#fecdc9; stroke:none;" d="M434 308L434 309L439 310L434 308z"/>
<path style="fill:#fed1ce; stroke:none;" d="M536 308L536 309L541 309L536 308z"/>
<path style="fill:#e4d8d8; stroke:none;" d="M722 308L722 309L729 321L730 321C729.113 315.867 727.33 309.71 722 308z"/>
<path style="fill:#fecccb; stroke:none;" d="M856 308L856 309L860 309L856 308z"/>
<path style="fill:#ed968f; stroke:none;" d="M200 309L200 310L204 310L200 309z"/>
<path style="fill:#e8cdc6; stroke:none;" d="M196 314L202 311L196 314z"/>
<path style="fill:#e2d7d5; stroke:none;" d="M403 310L404 313L405 313L405 310L403 310z"/>
<path style="fill:#eabfb9; stroke:none;" d="M111.667 311.333L112.333 311.667L111.667 311.333z"/>
<path style="fill:#dca5a2; stroke:none;" d="M530.667 311.333L531.333 311.667L530.667 311.333z"/>
<path style="fill:#d8a19e; stroke:none;" d="M850 311L850 312L853 312L850 311z"/>
<path style="fill:#f7a29d; stroke:none;" d="M113 312L117 315L113 312z"/>
<path style="fill:#e3dfe0; stroke:none;" d="M567 312L562 324L563 324L569 312L567 312z"/>
<path style="fill:#dedad9; stroke:none;" d="M405 313L412 324L405 313z"/>
<path style="fill:#e5dbda; stroke:none;" d="M194 314L189 321L196 314L194 314z"/>
<path style="fill:#dfd7d4; stroke:none;" d="M795 316L795 320L796 320L795 316z"/>
<path style="fill:#d3bbb9; stroke:none;" d="M819 316L819 320L820 320L819 316z"/>
<path style="fill:#d29d99; stroke:none;" d="M474 317L475 324L476 324L474 317z"/>
<path style="fill:#cdaeab; stroke:none;" d="M886 317L885 321L886 321L888 317L886 317z"/>
<path style="fill:#edaca6; stroke:none;" d="M120 319L123 326L124 326L120 319z"/>
<path style="fill:#e0e1e3; stroke:none;" d="M883 320L881 328L882 328L885 320L883 320z"/>
<path style="fill:#e1d1d1; stroke:none;" d="M730 321L733 328L734 328L730 321z"/>
<path style="fill:#d19f96; stroke:none;" d="M796 321L796 325L797 325L796 321z"/>
<path style="fill:#d6bdb8; stroke:none;" d="M519.333 323.667L519.667 324.333L519.333 323.667z"/>
<path style="fill:#fa776d; stroke:none;" d="M229 324C221.628 331.743 215.488 327.741 206 330L206 331C212.305 330.204 229.513 334.118 229 324z"/>
<path style="fill:#cc9791; stroke:none;" d="M410 324L411 327L412 327L412 324L410 324z"/>
<path style="fill:#f2a9a3; stroke:none;" d="M186 325L185 329L186 329L186 325z"/>
<path style="fill:#d09e9d; stroke:none;" d="M455 325L455 328L456 328L455 325z"/>
<path style="fill:#cca2a4; stroke:none;" d="M496 326L496 331L497 331L496 326z"/>
<path style="fill:#d18e88; stroke:none;" d="M777 327L777 331L778 331L777 327z"/>
<path style="fill:#fcc2be; stroke:none;" d="M92 328L92 329L101 329L92 328z"/>
<path style="fill:#fac3bc; stroke:none;" d="M208 328L208 329L218 329L208 328z"/>
<path style="fill:#c98f8b; stroke:none;" d="M837 328L837 331L838 331L837 328z"/>
<path style="fill:#e3d1cf; stroke:none;" d="M184 329L183 340L184 340L184 329z"/>
<path style="fill:#fcd5d0; stroke:none;" d="M218 329L218 330L225 330L218 329z"/>
<path style="fill:#ec9f99; stroke:none;" d="M414 329L414 330L417 330L414 329z"/>
<path style="fill:#ec9f97; stroke:none;" d="M423 329L423 330L427 330L423 329z"/>
<path style="fill:#dcc8c9; stroke:none;" d="M427 329L427 330L435 331L427 329z"/>
<path style="fill:#e7d5d5; stroke:none;" d="M540 329L540 330L550 330L540 329z"/>
<path style="fill:#e99f96; stroke:none;" d="M734 329L734 330L738 330L734 329M744 329L744 330L747 330L744 329z"/>
<path style="fill:#e6b5ae; stroke:none;" d="M417 330L417 331L423 331L417 330z"/>
<path style="fill:#d47a71; stroke:none;" d="M427 330L427 331L431 331L427 330z"/>
<path style="fill:#e5dfdf; stroke:none;" d="M534 337L535 337L540 331C535.941 330.172 534.558 333.427 534 337z"/>
<path style="fill:#d67971; stroke:none;" d="M540 330L540 331L550 331L540 330z"/>
<path style="fill:#e6b5b0; stroke:none;" d="M550 330L550 331L557 331L550 330z"/>
<path style="fill:#e5b2ae; stroke:none;" d="M738 330L738 331L744 331L738 330z"/>
<path style="fill:#d58e88; stroke:none;" d="M747 330L747 331L758 334C755.545 329.548 751.661 330.004 747 330M857 334L871 331C866.259 329.01 859.745 329.302 857 334z"/>
<path style="fill:#e5b2ae; stroke:none;" d="M871 330L871 331L880 331L871 330z"/>
<path style="fill:#f79286; stroke:none;" d="M206 331C196.767 339.211 199.852 355.752 200.004 367C200.164 378.834 206.671 389.529 211.169 400.089C221.628 424.644 233.933 448.411 244.309 473C248.364 482.61 267.801 510.211 256.54 518.486C246.827 525.624 221.6 521 210 521C194.304 521 178.625 520.129 163 520L164 684L165 684L165 580L164 521C187.539 522.858 211.361 522 235 522C242.062 522 255.568 524.028 260.137 517.366C263.679 512.202 261.447 505.961 259.13 500.834C253.836 489.121 248.637 477.049 242.629 465.715C235.407 452.091 230.433 437.248 223.87 423.289C215.799 406.126 204.381 387.893 201.259 369C199.987 361.3 199.696 349.606 201.46 342C202.327 338.261 206.164 334.557 206 331z"/>
<path style="fill:#d3b7b4; stroke:none;" d="M778 331L778 337L779 337L778 331z"/>
<path style="fill:#e5ddda; stroke:none;" d="M436 332L439 338L440 338L436 332z"/>
<path style="fill:#e18882; stroke:none;" d="M478 332L480 335L478 332z"/>
<path style="fill:#d29d97; stroke:none;" d="M515 332L515 337L516 337L515 332z"/>
<path style="fill:#ddd5d3; stroke:none;" d="M836 332L836 337L837 337L836 332z"/>
<path style="fill:#e3b7b4; stroke:none;" d="M126 333L128 367L129 367C129 357.813 131.714 340.542 126 333z"/>
<path style="fill:#e0d6d5; stroke:none;" d="M759 336L759 337L762 350L763 350L762 336L759 336z"/>
<path style="fill:#cfaea9; stroke:none;" d="M855 336L854 347L855 347L855 336z"/>
<path style="fill:#d7a4a0; stroke:none;" d="M483 337L483 338L490 338L483 337z"/>
<path style="fill:#e9e5e4; stroke:none;" d="M514 337L514 357L515 357L514 337z"/>
<path style="fill:#d19491; stroke:none;" d="M804 337L804 338L811 338L804 337z"/>
<path style="fill:#d3bebd; stroke:none;" d="M835.333 337.667L835.667 338.333L835.333 337.667z"/>
<path style="fill:#e3d9d8; stroke:none;" d="M440 338L439.699 375L434 399L435 399C438.479 380.545 448.06 356.686 440 338z"/>
<path style="fill:#db8b84; stroke:none;" d="M458 338L459 371L467 371L467 370L460 370C460 361.565 463.168 344.822 458 338z"/>
<path style="fill:#ce9492; stroke:none;" d="M533 341L533 346L534 346L533 341z"/>
<path style="fill:#f99c94; stroke:none;" d="M181 343L182 371L183 371L181 343z"/>
<path style="fill:#e4d8d8; stroke:none;" d="M531 345L531 367L532 367L533 345L531 345z"/>
<path style="fill:#e1d6d4; stroke:none;" d="M852 346L856 389L857 389L854 346L852 346z"/>
<path style="fill:#cfadab; stroke:none;" d="M761 349L761 363L762 363L761 349z"/>
<path style="fill:#dfd5d4; stroke:none;" d="M514 358L514 371L515 371L514 358z"/>
<path style="fill:#7e3b35; stroke:none;" d="M853 360L853 363L854 363L853 360z"/>
<path style="fill:#e1d6d4; stroke:none;" d="M762 362L758 389L759 389L762 362z"/>
<path style="fill:#f4a5a0; stroke:none;" d="M127 367L127 377L128 377L127 367z"/>
<path style="fill:#e2dad8; stroke:none;" d="M532 367C532.495 373.258 532.835 387.068 538 391L532 367z"/>
<path style="fill:#e2cecf; stroke:none;" d="M183 370L185 386L186 386L183 370z"/>
<path style="fill:#fe7c6f; stroke:none;" d="M467 370L467 371L509 371C498.012 366.389 478.957 370 467 370z"/>
<path style="fill:#d99e9a; stroke:none;" d="M509 370L509 371L514 371L509 370z"/>
<path style="fill:#dbd0ce; stroke:none;" d="M836 375L836 381L837 381L836 375z"/>
<path style="fill:#d0b7b3; stroke:none;" d="M778 376L778 381L779 381L778 376z"/>
<path style="fill:#d18881; stroke:none;" d="M777 382L777 387L778 387L777 382z"/>
<path style="fill:#cd9691; stroke:none;" d="M837 382L837 387L838 387L837 382z"/>
<path style="fill:#f1a6a1; stroke:none;" d="M124 384L122 393L123 393L124 384z"/>
<path style="fill:#f3a59b; stroke:none;" d="M185 386L186 391L187 391L185 386z"/>
<path style="fill:#cfaca8; stroke:none;" d="M857 387L858 396L859 396L857 387z"/>
<path style="fill:#cfabad; stroke:none;" d="M757 388L755 403L756 403L757 388z"/>
<path style="fill:#cf9089; stroke:none;" d="M538.333 390.667L538.667 391.333L538.333 390.667z"/>
<path style="fill:#dac6c5; stroke:none;" d="M187 391L189 398L190 398L187 391z"/>
<path style="fill:#e3d8d6; stroke:none;" d="M538 392L539 399L540 399L538 392z"/>
<path style="fill:#ebccca; stroke:none;" d="M453 394L453 395L520 395L499 394L453 394z"/>
<path style="fill:#e26d64; stroke:none;" d="M453 395L453 396L520 396L499 395L453 395z"/>
<path style="fill:#ff5d50; stroke:none;" d="M453 396L440 444L533 444L520 396L453 396z"/>
<path style="fill:#db8681; stroke:none;" d="M520 396L520 401L521 401L520 396z"/>
<path style="fill:#e0d5d3; stroke:none;" d="M858 396L866 441L867 441C865.181 426.915 863.847 408.997 858 396z"/>
<path style="fill:#f0b1aa; stroke:none;" d="M119 397L117 403L119 397z"/>
<path style="fill:#f7a399; stroke:none;" d="M190.333 398.667L190.667 399.333L190.333 398.667z"/>
<path style="fill:#ca8f8b; stroke:none;" d="M540.333 398.667L540.667 399.333L540.333 398.667z"/>
<path style="fill:#e1d7d6; stroke:none;" d="M432 399L430 413L431 413L434 399L432 399z"/>
<path style="fill:#cda7a6; stroke:none;" d="M451 400L450 406L451 406L451 400z"/>
<path style="fill:#e2c1bc; stroke:none;" d="M192 401L193 406L194 406L192 401z"/>
<path style="fill:#cc9b96; stroke:none;" d="M773 401L773 408L774 408L773 401z"/>
<path style="fill:#d0b6b5; stroke:none;" d="M841 402L841 408L842 408L841 402z"/>
<path style="fill:#dfcbca; stroke:none;" d="M116 403L115 409L116 409L116 403z"/>
<path style="fill:#e0d6d5; stroke:none;" d="M755 403L746 455L747 455L753.129 417.039L755 403z"/>
<path style="fill:#ca8d88; stroke:none;" d="M542.333 404.667L542.667 405.333L542.333 404.667z"/>
<path style="fill:#e9b2ad; stroke:none;" d="M194 406L194 409L195 409L194 406z"/>
<path style="fill:#d5c2be; stroke:none;" d="M523 406L523 410L524 410L523 406z"/>
<path style="fill:#d39b9c; stroke:none;" d="M543.333 408.667L543.667 409.333L543.333 408.667z"/>
<path style="fill:#e17a73; stroke:none;" d="M772 408L772 416L773 416L772 408z"/>
<path style="fill:#eeaaa7; stroke:none;" d="M114.333 409.667L114.667 410.333L114.333 409.667z"/>
<path style="fill:#fb9d95; stroke:none;" d="M195.333 409.667L195.667 410.333L195.333 409.667z"/>
<path style="fill:#d4877f; stroke:none;" d="M842 409L842 415L843 415L842 409z"/>
<path style="fill:#d38c86; stroke:none;" d="M524 410L524 415L525 415L524 410z"/>
<path style="fill:#e2aba6; stroke:none;" d="M197 412L199 419L200 419L197 412z"/>
<path style="fill:#cd928a; stroke:none;" d="M428 412L428 417L429 417L430 412L428 412z"/>
<path style="fill:#ca908c; stroke:none;" d="M544 412L544 415L545 415L544 412z"/>
<path style="fill:#f0aba6; stroke:none;" d="M111 414L108 423C110.85 420.859 112.014 417.43 111 414z"/>
<path style="fill:#d9c1c1; stroke:none;" d="M447 414L447 418L448 418L447 414z"/>
<path style="fill:#e4d9d7; stroke:none;" d="M544 415L549 437L550 437L544 415z"/>
<path style="fill:#e3dfdc; stroke:none;" d="M427 418L425 431L426 431L427 418z"/>
<path style="fill:#d28f87; stroke:none;" d="M446 418L445 424L446 424L448 418L446 418z"/>
<path style="fill:#e3c2bd; stroke:none;" d="M201 421L202 426L203 426L201 421z"/>
<path style="fill:#d7a4a0; stroke:none;" d="M528 424L528 428L529 428L528 424z"/>
<path style="fill:#d3bbb9; stroke:none;" d="M769 424L769 431L770 431L769 424z"/>
<path style="fill:#edb0ab; stroke:none;" d="M106 425L101 439L102 439L108 425L106 425z"/>
<path style="fill:#ded5d6; stroke:none;" d="M845 425L845 431L846 431L845 425z"/>
<path style="fill:#e8ada7; stroke:none;" d="M203 426L204 431L205 431L203 426z"/>
<path style="fill:#d98a85; stroke:none;" d="M529 428L529 433L530 433L529 428z"/>
<path style="fill:#cd9892; stroke:none;" d="M846 431L846 438L847 438L846 431z"/>
<path style="fill:#e7b0ab; stroke:none;" d="M206 432L210 441L206 432z"/>
<path style="fill:#d28983; stroke:none;" d="M768 432L768 439L769 439L768 432z"/>
<path style="fill:#cca09d; stroke:none;" d="M442 433L442 437L443 437L442 433z"/>
<path style="fill:#d0938e; stroke:none;" d="M422.333 435.667L422.667 436.333L422.333 435.667z"/>
<path style="fill:#d09390; stroke:none;" d="M550 436L551 439L552 439L552 436L550 436z"/>
<path style="fill:#da837a; stroke:none;" d="M441 437L441 441L442 441L441 437z"/>
<path style="fill:#c8918e; stroke:none;" d="M421 438L421 441L422 441L421 438z"/>
<path style="fill:#d9c7c5; stroke:none;" d="M532 438L532 442L533 442L532 438z"/>
<path style="fill:#f3a6a0; stroke:none;" d="M100 439L99 445L100 445L100 439z"/>
<path style="fill:#e2dad8; stroke:none;" d="M551 439L552 448L553 448L551 439z"/>
<path style="fill:#e0cbca; stroke:none;" d="M210 441L211 446L212 446L210 441z"/>
<path style="fill:#e1d5d7; stroke:none;" d="M421 441L420 445L421 441z"/>
<path style="fill:#e0d6d5; stroke:none;" d="M867 441L870 469L871 469L867 441z"/>
<path style="fill:#d4847d; stroke:none;" d="M533 442C527.098 446.472 514.228 444 507 444L440 444L440 445L512 445C515.555 445 534.774 446.706 533 442z"/>
<path style="fill:#ce8e8c; stroke:none;" d="M419 444L419 449L420 449L419 444z"/>
<path style="fill:#eab0ae; stroke:none;" d="M97 445L96 451L97 451L97 445z"/>
<path style="fill:#e9dedc; stroke:none;" d="M440 445L440 446L534 446L505 445L440 445z"/>
<path style="fill:#eaaea6; stroke:none;" d="M212 446L219 461L212 446z"/>
<path style="fill:#cf928d; stroke:none;" d="M554 447L554 450L555 450L554 447z"/>
<path style="fill:#e3d9d8; stroke:none;" d="M419 449L417 455L419 449z"/>
<path style="fill:#e2d8d9; stroke:none;" d="M554 450L557 463L558 463L554 450z"/>
<path style="fill:#f78f84; stroke:none;" d="M95 451L93 457L94 457L95 451z"/>
<path style="fill:#cf928d; stroke:none;" d="M416 453L416 458L417 458L418 453L416 453z"/>
<path style="fill:#cc9f99; stroke:none;" d="M764 454L764 461L765 461L764 454z"/>
<path style="fill:#cfb6b2; stroke:none;" d="M850 454L850 460L851 460L850 454z"/>
<path style="fill:#e2d8d7; stroke:none;" d="M745 455L744 464L745 464L745 455z"/>
<path style="fill:#e6b5b1; stroke:none;" d="M92.3333 457.667L92.6667 458.333L92.3333 457.667z"/>
<path style="fill:#e3d9d8; stroke:none;" d="M416 458L412 478L413 478L416 458z"/>
<path style="fill:#eeaeac; stroke:none;" d="M91 459L91 462L92 462L91 459z"/>
<path style="fill:#efa8a2; stroke:none;" d="M219 461L223 472L224 472L219 461z"/>
<path style="fill:#d78883; stroke:none;" d="M851 461L851 468L852 468L851 461z"/>
<path style="fill:#fba29c; stroke:none;" d="M90 462L89 465L90 462z"/>
<path style="fill:#cfadab; stroke:none;" d="M743 463L743 471L744 471L743 463z"/>
<path style="fill:#e2d8d6; stroke:none;" d="M558 464L560 469L558 464z"/>
<path style="fill:#e4b8b7; stroke:none;" d="M87.3333 468.667L87.6667 469.333L87.3333 468.667z"/>
<path style="fill:#cf9291; stroke:none;" d="M560 468L560 473L561 473L560 468z"/>
<path style="fill:#cdaeab; stroke:none;" d="M871 468L873 483L874 483L871 468z"/>
<path style="fill:#ec847b; stroke:none;" d="M432 469L432 473L433 473L433 470L540 470L507 469L432 469z"/>
<path style="fill:#eea9a4; stroke:none;" d="M86.3333 470.667L86.6667 471.333L86.3333 470.667z"/>
<path style="fill:#ff5d50; stroke:none;" d="M433 470L421 512L467 511L551 511L541 470L433 470z"/>
<path style="fill:#e0d6d4; stroke:none;" d="M743 471L734.259 517L724.742 577.911L717 627L718 627L721 598C726.241 593.444 725.65 576.86 727.116 570C732.316 545.656 737.395 519.949 740.027 495.285C740.769 488.33 745.683 477.444 743 471z"/>
<path style="fill:#f9a49f; stroke:none;" d="M224 472L227 481L228 481L224 472z"/>
<path style="fill:#e2d8d7; stroke:none;" d="M561 473L561 479L562 479L561 473z"/>
<path style="fill:#efaea8; stroke:none;" d="M84 474L81 484L82 484L84 474z"/>
<path style="fill:#cea19c; stroke:none;" d="M542 475L542 479L543 479L542 475z"/>
<path style="fill:#d3bebb; stroke:none;" d="M760 476L760 483L761 483L760 476z"/>
<path style="fill:#c99893; stroke:none;" d="M410 477L410 481L411 481L412 477L410 477z"/>
<path style="fill:#e3dad5; stroke:none;" d="M854 477L854 482L855 482L854 477z"/>
<path style="fill:#cc918d; stroke:none;" d="M562 478L563 482L564 482L562 478z"/>
<path style="fill:#e18681; stroke:none;" d="M543 480L544 485L545 485L543 480z"/>
<path style="fill:#e4dad9; stroke:none;" d="M409 481L408 488L409 488L411 481L409 481z"/>
<path style="fill:#e4d8d8; stroke:none;" d="M563 482L566 496L567 496L563 482z"/>
<path style="fill:#dfbdbb; stroke:none;" d="M229.333 483.667L229.667 484.333L229.333 483.667z"/>
<path style="fill:#d9a29f; stroke:none;" d="M428 483L428 487L429 487L428 483z"/>
<path style="fill:#ce8d89; stroke:none;" d="M759 483L759 490L760 490L759 483z"/>
<path style="fill:#cf9999; stroke:none;" d="M855 483L855 490L856 490L855 483z"/>
<path style="fill:#e1d5d5; stroke:none;" d="M873 483L874 491L875 491L873 483z"/>
<path style="fill:#e9afab; stroke:none;" d="M79 484L78 490L79 490L81 484L79 484z"/>
<path style="fill:#f5d0c8; stroke:none;" d="M835 484L835 485L839 485L835 484z"/>
<path style="fill:#e3b3a9; stroke:none;" d="M230 485L230 488L231 488L230 485z"/>
<path style="fill:#fba39f; stroke:none;" d="M831 485L831 486L835 486L831 485z"/>
<path style="fill:#fcb2a7; stroke:none;" d="M839.667 485.333L840.333 485.667L839.667 485.333z"/>
<path style="fill:#cf928d; stroke:none;" d="M407 487L407 490L408 490L407 487z"/>
<path style="fill:#fa9b95; stroke:none;" d="M231.333 488.667L231.667 489.333L231.333 488.667z"/>
<path style="fill:#e2837d; stroke:none;" d="M427 488L427 492L428 492L427 488z"/>
<path style="fill:#d6c7c4; stroke:none;" d="M546 489L546 493L547 493L546 489z"/>
<path style="fill:#fd8d82; stroke:none;" d="M77 490L76 494L77 490z"/>
<path style="fill:#cdaea9; stroke:none;" d="M875 490L876 499L877 499L875 490z"/>
<path style="fill:#dbd1d0; stroke:none;" d="M827 491L827 495L828 495L827 491z"/>
<path style="fill:#ceafad; stroke:none;" d="M846 492L846 497L847 497L846 492z"/>
<path style="fill:#dec5c1; stroke:none;" d="M75 494L75 497L76 497L75 494z"/>
<path style="fill:#e3b6b3; stroke:none;" d="M234 494L236 497L234 494z"/>
<path style="fill:#d5948e; stroke:none;" d="M547 494L547 498L548 498L547 494z"/>
<path style="fill:#e2dad7; stroke:none;" d="M405 496L395 536L396 536C398.67 525.31 408.857 506.757 405 496z"/>
<path style="fill:#e2dad8; stroke:none;" d="M567 496L568 504L569 504L567 496z"/>
<path style="fill:#ee8278; stroke:none;" d="M74 497C78.6858 502.362 98.9679 499 106 499L201 499C208.476 499 231.057 502.657 236 497C204.833 502.786 168.713 498 137 498C117.168 498 93.2983 501.595 74 497z"/>
<path style="fill:#d7ccc8; stroke:none;" d="M424 497L424 501L425 501L424 497z"/>
<path style="fill:#e9d7d5; stroke:none;" d="M74 499L74 500L236 500C223.593 494.794 201.515 499 188 499L74 499z"/>
<path style="fill:#e1d5d5; stroke:none;" d="M876 499L883 543L884 543C883.956 530.242 881.13 510.738 876 499z"/>
<path style="fill:#d29590; stroke:none;" d="M423 501L423 506L424 506L423 501z"/>
<path style="fill:#e4d8d8; stroke:none;" d="M569 504L570 511L571 511L569 504z"/>
<path style="fill:#d2baba; stroke:none;" d="M859 505L859 512L860 512L859 505z"/>
<path style="fill:#cba29e; stroke:none;" d="M755 506L755 513L756 513L755 506z"/>
<path style="fill:#e57066; stroke:none;" d="M551 507L551 511L423 511L423 512L552 512L551 507z"/>
<path style="fill:#cd9189; stroke:none;" d="M571 510L572 514L573 514L571 510z"/>
<path style="fill:#dac1bd; stroke:none;" d="M552 511L509 512L421 512L421 513L521 513L545 513L552 511z"/>
<path style="fill:#ce938d; stroke:none;" d="M850 512L850 518L851 518L850 512z"/>
<path style="fill:#db7e77; stroke:none;" d="M754 513L754 520L755 520L754 513z"/>
<path style="fill:#d38a84; stroke:none;" d="M860 513L860 519L861 519L860 513z"/>
<path style="fill:#e4d8d8; stroke:none;" d="M572 514L579 542L580 542L572 514z"/>
<path style="fill:#db827a; stroke:none;" d="M824 514L824 529L825 529L824 514z"/>
<path style="fill:#e0d2d2; stroke:none;" d="M851 519L851 525L852 525L851 519z"/>
<path style="fill:#7d3c36; stroke:none;" d="M881.333 522.667L881.667 523.333L881.333 522.667z"/>
<path style="fill:#d8c6c4; stroke:none;" d="M751 528L751 534L752 534L751 528z"/>
<path style="fill:#ceaba7; stroke:none;" d="M823 530L823 546L824 546L823 530z"/>
<path style="fill:#d4847d; stroke:none;" d="M854 533L854 540L855 540L854 533z"/>
<path style="fill:#d2b3b0; stroke:none;" d="M414 537L463 536L559 536L560 543L561 543L560 535L451 535L424 535L414 537z"/>
<path style="fill:#d08f8b; stroke:none;" d="M750 535L750 543L751 543L750 535z"/>
<path style="fill:#cca0a1; stroke:none;" d="M864 535L864 541L865 541L864 535z"/>
<path style="fill:#ca9992; stroke:none;" d="M393 536L393 541L394 541L395 536L393 536z"/>
<path style="fill:#ec6c5f; stroke:none;" d="M415 536L415 537L559 537C547.782 532.293 528.206 536 516 536L415 536z"/>
<path style="fill:#ff5d50; stroke:none;" d="M403 579L571 579C568.527 568.512 565.883 557.678 562.025 547.576C560.956 544.776 560.763 539.966 558.272 538.028C552.531 533.56 533.214 537 526 537L444 537C437.146 537 420.152 533.899 414.564 538.028C411.471 540.313 411.423 546.564 410.735 550C408.792 559.707 403.213 569.04 403 579z"/>
<path style="fill:#d0aaa7; stroke:none;" d="M855 540L855 546L856 546L855 540z"/>
<path style="fill:#e0dbd7; stroke:none;" d="M393 541L386 569L387 569L393 541z"/>
<path style="fill:#df7e75; stroke:none;" d="M865 541L865 549L866 549L865 541z"/>
<path style="fill:#cd9894; stroke:none;" d="M581 542L581 546L582 546L581 542z"/>
<path style="fill:#cfaca8; stroke:none;" d="M884 542L885 551L886 551L884 542z"/>
<path style="fill:#df8179; stroke:none;" d="M561 544L561 548L562 548L561 544z"/>
<path style="fill:#d1b2af; stroke:none;" d="M822.333 546.667L822.667 547.333L822.333 546.667z"/>
<path style="fill:#e57d72; stroke:none;" d="M410 547L408 557L409 557L410 547z"/>
<path style="fill:#d19e9b; stroke:none;" d="M583.333 551.667L583.667 552.333L583.333 551.667z"/>
<path style="fill:#e1d5d5; stroke:none;" d="M885 551L888 572L889 572L885 551z"/>
<path style="fill:#d4b2b1; stroke:none;" d="M564 552L564 557L565 557L564 552z"/>
<path style="fill:#e6dcdb; stroke:none;" d="M583 553L584 560L585 560L583 553z"/>
<path style="fill:#cfaca8; stroke:none;" d="M746 558L746 565L747 565L746 558z"/>
<path style="fill:#d5c0bf; stroke:none;" d="M868 558L868 564L869 564L868 558z"/>
<path style="fill:#ce9190; stroke:none;" d="M585.333 559.667L585.667 560.333L585.333 559.667z"/>
<path style="fill:#ceb2b1; stroke:none;" d="M406 561L406 565L407 565L406 561z"/>
<path style="fill:#e2d9da; stroke:none;" d="M585 561L590 598L591 598C596.349 588.45 590.062 570.312 585 561z"/>
<path style="fill:#cd948d; stroke:none;" d="M859 561L859 568L860 568L859 561z"/>
<path style="fill:#d1b7b8; stroke:none;" d="M821.333 562.667L821.667 563.333L821.333 562.667z"/>
<path style="fill:#da8781; stroke:none;" d="M405 565L405 570L406 570L405 565z"/>
<path style="fill:#d28b85; stroke:none;" d="M869 565L869 571L870 571L869 565z"/>
<path style="fill:#e1d7d6; stroke:none;" d="M568 567L568 571L569 571L568 567z"/>
<path style="fill:#d9c7c5; stroke:none;" d="M860 568L860 575L861 575L860 568z"/>
<path style="fill:#e3d9d7; stroke:none;" d="M385 569L382 582L383 582L385 569z"/>
<path style="fill:#d19c94; stroke:none;" d="M569 571L569 576L570 576L569 571z"/>
<path style="fill:#cfaca8; stroke:none;" d="M889 571L890 580L891 580L889 571z"/>
<path style="fill:#ddd1d1; stroke:none;" d="M402 574L402 578L403 578L402 574z"/>
<path style="fill:#dbd1d0; stroke:none;" d="M840 577L840 582L842 582L842 577L840 577z"/>
<path style="fill:#d09f9a; stroke:none;" d="M402 578L415 580L450 580L450 579L402 578z"/>
<path style="fill:#cbaca7; stroke:none;" d="M820.333 578.667L820.667 579.333L820.333 578.667z"/>
<path style="fill:#d09f9a; stroke:none;" d="M455 579L455 580L571 580L536 579L455 579z"/>
<path style="fill:#dbcbcb; stroke:none;" d="M742 580L742 586L743 586L742 580z"/>
<path style="fill:#e0d6d4; stroke:none;" d="M890 580L903 663L904 663L895.361 608L890 580z"/>
<path style="fill:#d08f89; stroke:none;" d="M819 581L819 595L820 595L819 581z"/>
<path style="fill:#e5eaed; stroke:none;" d="M381 582C380.519 588.098 378.376 595.637 384.63 599.682C390.637 603.567 404.028 601 411 601L479 601L479 600L411 600C404.298 600 391.162 602.513 385.681 598.106C379.835 593.408 383.325 587.7 381 582z"/>
<path style="fill:#ff5d50; stroke:none;" d="M840 582L832 706L864 706L847.78 613L842 582L840 582z"/>
<path style="fill:#d78378; stroke:none;" d="M842 582L842 589L843 589L842 582z"/>
<path style="fill:#ce918e; stroke:none;" d="M741 587L741 595L742 595L741 587z"/>
<path style="fill:#cfa3a2; stroke:none;" d="M873 587L873 593L874 593L873 587z"/>
<path style="fill:#cdaba9; stroke:none;" d="M864 589L864 596L865 596L864 589z"/>
<path style="fill:#d8c9c6; stroke:none;" d="M818 597L818 611L819 611L818 597z"/>
<path style="fill:#ded2d2; stroke:none;" d="M845 597L845 603L846 603L845 597z"/>
<path style="fill:#e5eaed; stroke:none;" d="M495 600L495 601L560 601C569.31 601 581.477 603.102 590 599L563 600L495 600z"/>
<path style="fill:#f48479; stroke:none;" d="M386 601L386 602L478 602L478 606L479 606L479 601L386 601z"/>
<path style="fill:#ce938f; stroke:none;" d="M495 601L495 745L496 745L496 644C496 631.794 499.707 612.218 495 601z"/>
<path style="fill:#f48479; stroke:none;" d="M496 601L496 602L587 602L559 601L496 601z"/>
<path style="fill:#d09493; stroke:none;" d="M846 604L846 610L847 610L846 604z"/>
<path style="fill:#cda4a0; stroke:none;" d="M838 605L838 608L839 608L838 605z"/>
<path style="fill:#e3d9d8; stroke:none;" d="M478 606L478 744L479 744L479 648C479 636.056 482.607 616.98 478 606z"/>
<path style="fill:#d8c6c4; stroke:none;" d="M877 609L877 615L878 615L877 609z"/>
<path style="fill:#ceacaa; stroke:none;" d="M737 610L737 616L738 616L737 610z"/>
<path style="fill:#cfb0ae; stroke:none;" d="M837 610L837 623L838 623L837 610z"/>
<path style="fill:#cd908b; stroke:none;" d="M868 610L868 617L869 617L868 610z"/>
<path style="fill:#ce918c; stroke:none;" d="M878 616L878 622L879 622L878 616z"/>
<path style="fill:#da837c; stroke:none;" d="M736 617L736 624L737 624L736 617z"/>
<path style="fill:#d8c6c6; stroke:none;" d="M869 618L869 624L870 624L869 618z"/>
<path style="fill:#d1b2b0; stroke:none;" d="M850 625L850 631L851 631L850 625z"/>
<path style="fill:#ccb2b3; stroke:none;" d="M715 626L714 639L715 639L717 626L715 626z"/>
<path style="fill:#d5857c; stroke:none;" d="M836 626L836 639L837 639L836 626z"/>
<path style="fill:#dc7d77; stroke:none;" d="M816 628L815 646L816 646L816 628z"/>
<path style="fill:#ddd3d1; stroke:none;" d="M733 632L733 638L734 638L733 632z"/>
<path style="fill:#d48984; stroke:none;" d="M851 632L851 638L852 638L851 632z"/>
<path style="fill:#ceaba7; stroke:none;" d="M882 638L882 645L883 645L882 638z"/>
<path style="fill:#dfd7d5; stroke:none;" d="M714 639L708 677L709 677L712 649L714 639z"/>
<path style="fill:#e3796c; stroke:none;" d="M732 639L731 654L732 654L732 639z"/>
<path style="fill:#cca4a2; stroke:none;" d="M873 639L873 646L874 646L873 639z"/>
<path style="fill:#d98177; stroke:none;" d="M883 645L883 652L884 652L883 645z"/>
<path style="fill:#cca3a1; stroke:none;" d="M814 647L814 662L815 662L814 647z"/>
<path style="fill:#e0d6d4; stroke:none;" d="M854 648L854 652L855 652L854 648z"/>
<path style="fill:#c99695; stroke:none;" d="M855 653L855 660L856 660L855 653z"/>
<path style="fill:#783c34; stroke:none;" d="M904 653L904 656L905 656L904 653z"/>
<path style="fill:#cc958e; stroke:none;" d="M834 656L834 660L835 660L834 656z"/>
<path style="fill:#cf8c86; stroke:none;" d="M877 660L877 667L878 667L877 660z"/>
<path style="fill:#ddd1d1; stroke:none;" d="M886 661L886 667L887 667L886 661z"/>
<path style="fill:#cfb3b0; stroke:none;" d="M728 662L728 668L729 668L728 662z"/>
<path style="fill:#dfd5d4; stroke:none;" d="M833 662L833 674L834 674L833 662z"/>
<path style="fill:#cfaea9; stroke:none;" d="M905 662L905 667L906 667L905 662z"/>
<path style="fill:#d8c5c1; stroke:none;" d="M878 667L878 673L879 673L878 667z"/>
<path style="fill:#e0d6d5; stroke:none;" d="M905 667L912 713L913 713L908.808 684.985L905 667z"/>
<path style="fill:#d0918c; stroke:none;" d="M887 668L887 674L888 674L887 668z"/>
<path style="fill:#d5857e; stroke:none;" d="M727 669L727 676L728 676L727 669z"/>
<path style="fill:#d1b8b4; stroke:none;" d="M859 675L859 681L860 681L859 675z"/>
<path style="fill:#cfabab; stroke:none;" d="M707 676L706 680L707 680L707 676z"/>
<path style="fill:#cc9995; stroke:none;" d="M832 676L832 691L833 691L832 676z"/>
<path style="fill:#ddd1d1; stroke:none;" d="M707 679L704 699L705 699L707 679z"/>
<path style="fill:#d38882; stroke:none;" d="M860 681L860 688L861 688L860 681z"/>
<path style="fill:#dcd4d2; stroke:none;" d="M724 684L724 690L725 690L724 684z"/>
<path style="fill:#fe8f84; stroke:none;" d="M164 686L164 745L165 745L165 705L164 686z"/>
<path style="fill:#ca9d98; stroke:none;" d="M882 688L882 694L883 694L882 688z"/>
<path style="fill:#d1aaab; stroke:none;" d="M891 690L891 696L892 696L891 690z"/>
<path style="fill:#d09694; stroke:none;" d="M723 691L723 698L724 698L723 691z"/>
<path style="fill:#cc9b97; stroke:none;" d="M811 692L811 697L812 697L811 692z"/>
<path style="fill:#e68f88; stroke:none;" d="M831 692L831 707L865 707L865 703L864 703L864 706L832 706L831 692z"/>
<path style="fill:#d78378; stroke:none;" d="M892 697L892 704L893 704L892 697z"/>
<path style="fill:#cfaca8; stroke:none;" d="M703 698L702 704L703 704L703 698z"/>
<path style="fill:#e9928b; stroke:none;" d="M810 698L810 706L722 706L722 707L811 707L810 698z"/>
<path style="fill:#e1d5d5; stroke:none;" d="M703 703C702.323 711.566 698.643 717.988 703 726L704 726L703 703z"/>
<path style="fill:#783c32; stroke:none;" d="M913 705L913 708L914 708L913 705z"/>
<path style="fill:#ea928e; stroke:none;" d="M885 706L885 707L894 707L885 706z"/>
<path style="fill:#e4eaea; stroke:none;" d="M722 707L722 708L810 708L783 707L722 707z"/>
<path style="fill:#e1e5e6; stroke:none;" d="M832 707L832 708L864 708L832 707z"/>
<path style="fill:#cfaea9; stroke:none;" d="M913 712L912 725L913 725C914.652 721.085 916.633 715.174 913 712z"/>
<path style="fill:#ec9c93; stroke:none;" d="M703 726L703 727L706 727L703 726z"/>
<path style="fill:#e6b1ab; stroke:none;" d="M706 727L706 728L798 728L770 727L706 727M817 727L817 728L910 728L881 727L817 727z"/>
<path style="fill:#96382e; stroke:none;" d="M706.667 728.333L707.333 728.667L706.667 728.333z"/>
<path style="fill:#cfaea9; stroke:none;" d="M816 730L816 742L817 742L816 730z"/>
<path style="fill:#fbb8b2; stroke:none;" d="M147 744L147 745L164 745L147 744z"/>
<path style="fill:#f0938b; stroke:none;" d="M478 745L478 746L495 746L478 745z"/>
<path style="fill:#ef928b; stroke:none;" d="M799 745L799 746L816 746L799 745z"/>
<path style="fill:#fc9a8f; stroke:none;" d="M313 772L313 773L316 773L313 772z"/>
<path style="fill:#fcbeb3; stroke:none;" d="M637.667 772.333L638.333 772.667L637.667 772.333z"/>
<path style="fill:#ff9994; stroke:none;" d="M656.667 772.333L657.333 772.667L656.667 772.333z"/>
</svg>
